<?xml version="1.0" encoding="UTF-8" standalone="no"?>
<!DOCTYPE svg PUBLIC "-//W3C//DTD SVG 1.1//EN"
 "http://www.w3.org/Graphics/SVG/1.1/DTD/svg11.dtd">
<!-- Generated by graphviz version 2.38.0 (20140413.2041)
 -->
<!-- Title: snakemake_dag Pages: 1 -->
<svg width="600pt" height="980pt"
 viewBox="0.00 0.00 600.36 980.00" xmlns="http://www.w3.org/2000/svg" xmlns:xlink="http://www.w3.org/1999/xlink">
<g id="graph0" class="graph" transform="scale(1 1) rotate(0) translate(4 976)">
<title>snakemake_dag</title>
<polygon fill="white" stroke="none" points="-4,4 -4,-976 596.364,-976 596.364,4 -4,4"/>
<!-- 0 -->
<g id="node1" class="node"><title>0</title>
<path fill="none" stroke="#61d856" stroke-width="2" stroke-dasharray="5,2" d="M363.517,-36C363.517,-36 333.517,-36 333.517,-36 327.517,-36 321.517,-30 321.517,-24 321.517,-24 321.517,-12 321.517,-12 321.517,-6 327.517,-0 333.517,-0 333.517,-0 363.517,-0 363.517,-0 369.517,-0 375.517,-6 375.517,-12 375.517,-12 375.517,-24 375.517,-24 375.517,-30 369.517,-36 363.517,-36"/>
<text text-anchor="middle" x="348.517" y="-15" font-family="sans" font-size="10.00">all</text>
</g>
<!-- 1 -->
<g id="node2" class="node"><title>1</title>
<path fill="none" stroke="#d8cb56" stroke-width="2" stroke-dasharray="5,2" d="M363.517,-108C363.517,-108 333.517,-108 333.517,-108 327.517,-108 321.517,-102 321.517,-96 321.517,-96 321.517,-84 321.517,-84 321.517,-78 327.517,-72 333.517,-72 333.517,-72 363.517,-72 363.517,-72 369.517,-72 375.517,-78 375.517,-84 375.517,-84 375.517,-96 375.517,-96 375.517,-102 369.517,-108 363.517,-108"/>
<text text-anchor="middle" x="348.517" y="-87" font-family="sans" font-size="10.00">finish</text>
</g>
<!-- 1&#45;&gt;0 -->
<g id="edge1" class="edge"><title>1&#45;&gt;0</title>
<path fill="none" stroke="grey" stroke-width="2" d="M348.517,-71.6966C348.517,-63.9827 348.517,-54.7125 348.517,-46.1124"/>
<polygon fill="grey" stroke="grey" stroke-width="2" points="352.017,-46.1043 348.517,-36.1043 345.017,-46.1044 352.017,-46.1043"/>
</g>
<!-- 2 -->
<g id="node3" class="node"><title>2</title>
<path fill="none" stroke="#56d8d0" stroke-width="2" stroke-dasharray="5,2" d="M281.938,-180C281.938,-180 241.096,-180 241.096,-180 235.096,-180 229.096,-174 229.096,-168 229.096,-168 229.096,-156 229.096,-156 229.096,-150 235.096,-144 241.096,-144 241.096,-144 281.938,-144 281.938,-144 287.938,-144 293.938,-150 293.938,-156 293.938,-156 293.938,-168 293.938,-168 293.938,-174 287.938,-180 281.938,-180"/>
<text text-anchor="middle" x="261.517" y="-159" font-family="sans" font-size="10.00">zip_probes</text>
</g>
<!-- 2&#45;&gt;1 -->
<g id="edge2" class="edge"><title>2&#45;&gt;1</title>
<path fill="none" stroke="grey" stroke-width="2" d="M283.023,-143.697C293.98,-134.881 307.463,-124.032 319.342,-114.474"/>
<polygon fill="grey" stroke="grey" stroke-width="2" points="321.662,-117.1 327.259,-108.104 317.274,-111.646 321.662,-117.1"/>
</g>
<!-- 3 -->
<g id="node4" class="node"><title>3</title>
<path fill="none" stroke="#88d856" stroke-width="2" stroke-dasharray="5,2" d="M466.84,-180C466.84,-180 412.195,-180 412.195,-180 406.195,-180 400.195,-174 400.195,-168 400.195,-168 400.195,-156 400.195,-156 400.195,-150 406.195,-144 412.195,-144 412.195,-144 466.84,-144 466.84,-144 472.84,-144 478.84,-150 478.84,-156 478.84,-156 478.84,-168 478.84,-168 478.84,-174 472.84,-180 466.84,-180"/>
<text text-anchor="middle" x="439.517" y="-159" font-family="sans" font-size="10.00">zip_refseq_db</text>
</g>
<!-- 3&#45;&gt;1 -->
<g id="edge3" class="edge"><title>3&#45;&gt;1</title>
<path fill="none" stroke="grey" stroke-width="2" d="M417.023,-143.697C405.562,-134.881 391.459,-124.032 379.034,-114.474"/>
<polygon fill="grey" stroke="grey" stroke-width="2" points="380.813,-111.427 370.753,-108.104 376.545,-116.976 380.813,-111.427"/>
</g>
<!-- 4 -->
<g id="node5" class="node"><title>4</title>
<path fill="none" stroke="#d8b456" stroke-width="2" stroke-dasharray="5,2" d="M368.33,-180C368.33,-180 328.704,-180 328.704,-180 322.704,-180 316.704,-174 316.704,-168 316.704,-168 316.704,-156 316.704,-156 316.704,-150 322.704,-144 328.704,-144 328.704,-144 368.33,-144 368.33,-144 374.33,-144 380.33,-150 380.33,-156 380.33,-156 380.33,-168 380.33,-168 380.33,-174 374.33,-180 368.33,-180"/>
<text text-anchor="middle" x="348.517" y="-159" font-family="sans" font-size="10.00">zip_iso_db</text>
</g>
<!-- 4&#45;&gt;1 -->
<g id="edge4" class="edge"><title>4&#45;&gt;1</title>
<path fill="none" stroke="grey" stroke-width="2" d="M348.517,-143.697C348.517,-135.983 348.517,-126.712 348.517,-118.112"/>
<polygon fill="grey" stroke="grey" stroke-width="2" points="352.017,-118.104 348.517,-108.104 345.017,-118.104 352.017,-118.104"/>
</g>
<!-- 5 -->
<g id="node6" class="node"><title>5</title>
<path fill="none" stroke="#56c9d8" stroke-width="2" stroke-dasharray="5,2" d="M285.001,-252C285.001,-252 228.033,-252 228.033,-252 222.033,-252 216.033,-246 216.033,-240 216.033,-240 216.033,-228 216.033,-228 216.033,-222 222.033,-216 228.033,-216 228.033,-216 285.001,-216 285.001,-216 291.001,-216 297.001,-222 297.001,-228 297.001,-228 297.001,-240 297.001,-240 297.001,-246 291.001,-252 285.001,-252"/>
<text text-anchor="middle" x="256.517" y="-231" font-family="sans" font-size="10.00">merge_probes</text>
</g>
<!-- 5&#45;&gt;2 -->
<g id="edge5" class="edge"><title>5&#45;&gt;2</title>
<path fill="none" stroke="grey" stroke-width="2" d="M257.753,-215.697C258.304,-207.983 258.966,-198.712 259.58,-190.112"/>
<polygon fill="grey" stroke="grey" stroke-width="2" points="263.074,-190.328 260.295,-180.104 256.092,-189.83 263.074,-190.328"/>
</g>
<!-- 6 -->
<g id="node7" class="node"><title>6</title>
<path fill="none" stroke="#56d8c1" stroke-width="2" stroke-dasharray="5,2" d="M470.741,-252C470.741,-252 412.293,-252 412.293,-252 406.293,-252 400.293,-246 400.293,-240 400.293,-240 400.293,-228 400.293,-228 400.293,-222 406.293,-216 412.293,-216 412.293,-216 470.741,-216 470.741,-216 476.741,-216 482.741,-222 482.741,-228 482.741,-228 482.741,-240 482.741,-240 482.741,-246 476.741,-252 470.741,-252"/>
<text text-anchor="middle" x="441.517" y="-231" font-family="sans" font-size="10.00">gen_refseq_db</text>
</g>
<!-- 6&#45;&gt;3 -->
<g id="edge6" class="edge"><title>6&#45;&gt;3</title>
<path fill="none" stroke="grey" stroke-width="2" d="M441.023,-215.697C440.802,-207.983 440.537,-198.712 440.292,-190.112"/>
<polygon fill="grey" stroke="grey" stroke-width="2" points="443.79,-190 440.006,-180.104 436.793,-190.2 443.79,-190"/>
</g>
<!-- 7 -->
<g id="node8" class="node"><title>7</title>
<path fill="none" stroke="#5692d8" stroke-width="2" stroke-dasharray="5,2" d="M370.232,-252C370.232,-252 326.803,-252 326.803,-252 320.803,-252 314.803,-246 314.803,-240 314.803,-240 314.803,-228 314.803,-228 314.803,-222 320.803,-216 326.803,-216 326.803,-216 370.232,-216 370.232,-216 376.232,-216 382.232,-222 382.232,-228 382.232,-228 382.232,-240 382.232,-240 382.232,-246 376.232,-252 370.232,-252"/>
<text text-anchor="middle" x="348.517" y="-231" font-family="sans" font-size="10.00">gen_iso_db</text>
</g>
<!-- 7&#45;&gt;4 -->
<g id="edge7" class="edge"><title>7&#45;&gt;4</title>
<path fill="none" stroke="grey" stroke-width="2" d="M348.517,-215.697C348.517,-207.983 348.517,-198.712 348.517,-190.112"/>
<polygon fill="grey" stroke="grey" stroke-width="2" points="352.017,-190.104 348.517,-180.104 345.017,-190.104 352.017,-190.104"/>
</g>
<!-- 8 -->
<g id="node9" class="node"><title>8</title>
<path fill="none" stroke="#566bd8" stroke-width="2" stroke-dasharray="5,2" d="M372.001,-324C372.001,-324 325.033,-324 325.033,-324 319.033,-324 313.033,-318 313.033,-312 313.033,-312 313.033,-300 313.033,-300 313.033,-294 319.033,-288 325.033,-288 325.033,-288 372.001,-288 372.001,-288 378.001,-288 384.001,-294 384.001,-300 384.001,-300 384.001,-312 384.001,-312 384.001,-318 378.001,-324 372.001,-324"/>
<text text-anchor="middle" x="348.517" y="-303" font-family="sans" font-size="10.00">final_probes</text>
</g>
<!-- 8&#45;&gt;5 -->
<g id="edge8" class="edge"><title>8&#45;&gt;5</title>
<path fill="none" stroke="grey" stroke-width="2" d="M325.776,-287.697C314.077,-278.796 299.656,-267.823 287.007,-258.199"/>
<polygon fill="grey" stroke="grey" stroke-width="2" points="289.075,-255.374 278.997,-252.104 284.836,-260.945 289.075,-255.374"/>
</g>
<!-- 8&#45;&gt;6 -->
<g id="edge10" class="edge"><title>8&#45;&gt;6</title>
<path fill="none" stroke="grey" stroke-width="2" d="M371.506,-287.697C383.331,-278.796 397.909,-267.823 410.696,-258.199"/>
<polygon fill="grey" stroke="grey" stroke-width="2" points="412.908,-260.915 418.793,-252.104 408.698,-255.322 412.908,-260.915"/>
</g>
<!-- 8&#45;&gt;7 -->
<g id="edge13" class="edge"><title>8&#45;&gt;7</title>
<path fill="none" stroke="grey" stroke-width="2" d="M348.517,-287.697C348.517,-279.983 348.517,-270.712 348.517,-262.112"/>
<polygon fill="grey" stroke="grey" stroke-width="2" points="352.017,-262.104 348.517,-252.104 345.017,-262.104 352.017,-262.104"/>
</g>
<!-- 9 -->
<g id="node10" class="node"><title>9</title>
<path fill="none" stroke="#566bd8" stroke-width="2" stroke-dasharray="5,2" d="M280.001,-324C280.001,-324 233.033,-324 233.033,-324 227.033,-324 221.033,-318 221.033,-312 221.033,-312 221.033,-300 221.033,-300 221.033,-294 227.033,-288 233.033,-288 233.033,-288 280.001,-288 280.001,-288 286.001,-288 292.001,-294 292.001,-300 292.001,-300 292.001,-312 292.001,-312 292.001,-318 286.001,-324 280.001,-324"/>
<text text-anchor="middle" x="256.517" y="-303" font-family="sans" font-size="10.00">final_probes</text>
</g>
<!-- 9&#45;&gt;5 -->
<g id="edge9" class="edge"><title>9&#45;&gt;5</title>
<path fill="none" stroke="grey" stroke-width="2" d="M256.517,-287.697C256.517,-279.983 256.517,-270.712 256.517,-262.112"/>
<polygon fill="grey" stroke="grey" stroke-width="2" points="260.017,-262.104 256.517,-252.104 253.017,-262.104 260.017,-262.104"/>
</g>
<!-- 9&#45;&gt;6 -->
<g id="edge11" class="edge"><title>9&#45;&gt;6</title>
<path fill="none" stroke="grey" stroke-width="2" d="M292.187,-291.503C320.162,-280.918 359.46,-266.048 390.721,-254.22"/>
<polygon fill="grey" stroke="grey" stroke-width="2" points="392.029,-257.467 400.143,-250.655 389.552,-250.92 392.029,-257.467"/>
</g>
<!-- 9&#45;&gt;7 -->
<g id="edge14" class="edge"><title>9&#45;&gt;7</title>
<path fill="none" stroke="grey" stroke-width="2" d="M279.259,-287.697C290.957,-278.796 305.378,-267.823 318.027,-258.199"/>
<polygon fill="grey" stroke="grey" stroke-width="2" points="320.198,-260.945 326.037,-252.104 315.959,-255.374 320.198,-260.945"/>
</g>
<!-- 10 -->
<g id="node11" class="node"><title>10</title>
<path fill="none" stroke="#d86656" stroke-width="2" stroke-dasharray="5,2" d="M580.212,-468C580.212,-468 546.822,-468 546.822,-468 540.822,-468 534.822,-462 534.822,-456 534.822,-456 534.822,-444 534.822,-444 534.822,-438 540.822,-432 546.822,-432 546.822,-432 580.212,-432 580.212,-432 586.212,-432 592.212,-438 592.212,-444 592.212,-444 592.212,-456 592.212,-456 592.212,-462 586.212,-468 580.212,-468"/>
<text text-anchor="middle" x="563.517" y="-447" font-family="sans" font-size="10.00">parse_gtf</text>
</g>
<!-- 10&#45;&gt;6 -->
<g id="edge12" class="edge"><title>10&#45;&gt;6</title>
<path fill="none" stroke="grey" stroke-width="2" d="M570.384,-431.74C581.912,-399.62 600.807,-330.115 567.517,-288 549.248,-264.888 519.068,-251.728 492.825,-244.303"/>
<polygon fill="grey" stroke="grey" stroke-width="2" points="493.553,-240.876 482.993,-241.729 491.781,-247.648 493.553,-240.876"/>
</g>
<!-- 17 -->
<g id="node18" class="node"><title>17</title>
<path fill="none" stroke="#afd856" stroke-width="2" stroke-dasharray="5,2" d="M558.53,-396C558.53,-396 442.505,-396 442.505,-396 436.505,-396 430.505,-390 430.505,-384 430.505,-384 430.505,-372 430.505,-372 430.505,-366 436.505,-360 442.505,-360 442.505,-360 558.53,-360 558.53,-360 564.53,-360 570.53,-366 570.53,-372 570.53,-372 570.53,-384 570.53,-384 570.53,-390 564.53,-396 558.53,-396"/>
<text text-anchor="middle" x="500.517" y="-380" font-family="sans" font-size="10.00">flatten_isoforms</text>
<text text-anchor="middle" x="500.517" y="-370" font-family="sans" font-size="10.00">chrom_gtf: NZ_CP020549.1</text>
</g>
<!-- 10&#45;&gt;17 -->
<g id="edge28" class="edge"><title>10&#45;&gt;17</title>
<path fill="none" stroke="grey" stroke-width="2" d="M547.944,-431.697C540.315,-423.22 530.994,-412.864 522.641,-403.583"/>
<polygon fill="grey" stroke="grey" stroke-width="2" points="525.202,-401.196 515.911,-396.104 519.999,-405.879 525.202,-401.196"/>
</g>
<!-- 11 -->
<g id="node12" class="node"><title>11</title>
<path fill="none" stroke="#bed856" stroke-width="2" stroke-dasharray="5,2" d="M546.535,-324C546.535,-324 450.5,-324 450.5,-324 444.5,-324 438.5,-318 438.5,-312 438.5,-312 438.5,-300 438.5,-300 438.5,-294 444.5,-288 450.5,-288 450.5,-288 546.535,-288 546.535,-288 552.535,-288 558.535,-294 558.535,-300 558.535,-300 558.535,-312 558.535,-312 558.535,-318 552.535,-324 546.535,-324"/>
<text text-anchor="middle" x="498.517" y="-303" font-family="sans" font-size="10.00">merge_flat_annotations</text>
</g>
<!-- 11&#45;&gt;7 -->
<g id="edge15" class="edge"><title>11&#45;&gt;7</title>
<path fill="none" stroke="grey" stroke-width="2" d="M461.823,-287.876C440.573,-277.96 413.716,-265.426 391.483,-255.051"/>
<polygon fill="grey" stroke="grey" stroke-width="2" points="392.81,-251.808 382.268,-250.75 389.849,-258.151 392.81,-251.808"/>
</g>
<!-- 12 -->
<g id="node13" class="node"><title>12</title>
<path fill="none" stroke="#d88d56" stroke-width="2" stroke-dasharray="5,2" d="M400.378,-396C400.378,-396 364.657,-396 364.657,-396 358.657,-396 352.657,-390 352.657,-384 352.657,-384 352.657,-372 352.657,-372 352.657,-366 358.657,-360 364.657,-360 364.657,-360 400.378,-360 400.378,-360 406.378,-360 412.378,-366 412.378,-372 412.378,-372 412.378,-384 412.378,-384 412.378,-390 406.378,-396 400.378,-396"/>
<text text-anchor="middle" x="382.517" y="-375" font-family="sans" font-size="10.00">calc_prob</text>
</g>
<!-- 12&#45;&gt;8 -->
<g id="edge16" class="edge"><title>12&#45;&gt;8</title>
<path fill="none" stroke="grey" stroke-width="2" d="M374.113,-359.697C370.242,-351.728 365.565,-342.1 361.274,-333.264"/>
<polygon fill="grey" stroke="grey" stroke-width="2" points="364.342,-331.57 356.825,-324.104 358.046,-334.629 364.342,-331.57"/>
</g>
<!-- 13 -->
<g id="node14" class="node"><title>13</title>
<path fill="none" stroke="#d85656" stroke-width="2" stroke-dasharray="5,2" d="M322.693,-396C322.693,-396 284.341,-396 284.341,-396 278.341,-396 272.341,-390 272.341,-384 272.341,-384 272.341,-372 272.341,-372 272.341,-366 278.341,-360 284.341,-360 284.341,-360 322.693,-360 322.693,-360 328.693,-360 334.693,-366 334.693,-372 334.693,-372 334.693,-384 334.693,-384 334.693,-390 328.693,-396 322.693,-396"/>
<text text-anchor="middle" x="303.517" y="-375" font-family="sans" font-size="10.00">max_kmer</text>
</g>
<!-- 13&#45;&gt;8 -->
<g id="edge17" class="edge"><title>13&#45;&gt;8</title>
<path fill="none" stroke="grey" stroke-width="2" d="M314.641,-359.697C319.872,-351.559 326.217,-341.689 331.995,-332.701"/>
<polygon fill="grey" stroke="grey" stroke-width="2" points="335.058,-334.409 337.521,-324.104 329.17,-330.623 335.058,-334.409"/>
</g>
<!-- 14 -->
<g id="node15" class="node"><title>14</title>
<path fill="none" stroke="#d88d56" stroke-width="2" stroke-dasharray="5,2" d="M161.378,-396C161.378,-396 125.657,-396 125.657,-396 119.657,-396 113.657,-390 113.657,-384 113.657,-384 113.657,-372 113.657,-372 113.657,-366 119.657,-360 125.657,-360 125.657,-360 161.378,-360 161.378,-360 167.378,-360 173.378,-366 173.378,-372 173.378,-372 173.378,-384 173.378,-384 173.378,-390 167.378,-396 161.378,-396"/>
<text text-anchor="middle" x="143.517" y="-375" font-family="sans" font-size="10.00">calc_prob</text>
</g>
<!-- 14&#45;&gt;9 -->
<g id="edge18" class="edge"><title>14&#45;&gt;9</title>
<path fill="none" stroke="grey" stroke-width="2" d="M171.16,-359.876C185.935,-350.724 204.308,-339.342 220.22,-329.485"/>
<polygon fill="grey" stroke="grey" stroke-width="2" points="222.11,-332.431 228.768,-324.19 218.424,-326.481 222.11,-332.431"/>
</g>
<!-- 15 -->
<g id="node16" class="node"><title>15</title>
<path fill="none" stroke="#d85656" stroke-width="2" stroke-dasharray="5,2" d="M241.693,-396C241.693,-396 203.341,-396 203.341,-396 197.341,-396 191.341,-390 191.341,-384 191.341,-384 191.341,-372 191.341,-372 191.341,-366 197.341,-360 203.341,-360 203.341,-360 241.693,-360 241.693,-360 247.693,-360 253.693,-366 253.693,-372 253.693,-372 253.693,-384 253.693,-384 253.693,-390 247.693,-396 241.693,-396"/>
<text text-anchor="middle" x="222.517" y="-375" font-family="sans" font-size="10.00">max_kmer</text>
</g>
<!-- 15&#45;&gt;9 -->
<g id="edge19" class="edge"><title>15&#45;&gt;9</title>
<path fill="none" stroke="grey" stroke-width="2" d="M230.922,-359.697C234.792,-351.728 239.469,-342.1 243.76,-333.264"/>
<polygon fill="grey" stroke="grey" stroke-width="2" points="246.988,-334.629 248.209,-324.104 240.692,-331.57 246.988,-334.629"/>
</g>
<!-- 16 -->
<g id="node17" class="node"><title>16</title>
<path fill="none" stroke="#567bd8" stroke-width="2" stroke-dasharray="5,2" d="M297.731,-972C297.731,-972 239.303,-972 239.303,-972 233.303,-972 227.303,-966 227.303,-960 227.303,-960 227.303,-948 227.303,-948 227.303,-942 233.303,-936 239.303,-936 239.303,-936 297.731,-936 297.731,-936 303.731,-936 309.731,-942 309.731,-948 309.731,-948 309.731,-960 309.731,-960 309.731,-966 303.731,-972 297.731,-972"/>
<text text-anchor="middle" x="268.517" y="-951" font-family="sans" font-size="10.00">parse_genome</text>
</g>
<!-- 16&#45;&gt;10 -->
<g id="edge20" class="edge"><title>16&#45;&gt;10</title>
<path fill="none" stroke="grey" stroke-width="2" d="M309.846,-951.595C391.034,-946.398 563.517,-922.264 563.517,-811 563.517,-811 563.517,-811 563.517,-593 563.517,-552.996 563.517,-506.653 563.517,-478.08"/>
<polygon fill="grey" stroke="grey" stroke-width="2" points="567.017,-478.049 563.517,-468.049 560.017,-478.049 567.017,-478.049"/>
</g>
<!-- 19 -->
<g id="node20" class="node"><title>19</title>
<path fill="none" stroke="#70d856" stroke-width="2" stroke-dasharray="5,2" d="M294.496,-468C294.496,-468 242.538,-468 242.538,-468 236.538,-468 230.538,-462 230.538,-456 230.538,-456 230.538,-444 230.538,-444 230.538,-438 236.538,-432 242.538,-432 242.538,-432 294.496,-432 294.496,-432 300.496,-432 306.496,-438 306.496,-444 306.496,-444 306.496,-456 306.496,-456 306.496,-462 300.496,-468 294.496,-468"/>
<text text-anchor="middle" x="268.517" y="-447" font-family="sans" font-size="10.00">build_jellyfish</text>
</g>
<!-- 16&#45;&gt;19 -->
<g id="edge30" class="edge"><title>16&#45;&gt;19</title>
<path fill="none" stroke="grey" stroke-width="2" d="M268.517,-935.951C268.517,-909.292 268.517,-856.115 268.517,-811 268.517,-811 268.517,-811 268.517,-593 268.517,-552.996 268.517,-506.653 268.517,-478.08"/>
<polygon fill="grey" stroke="grey" stroke-width="2" points="272.017,-478.049 268.517,-468.049 265.017,-478.049 272.017,-478.049"/>
</g>
<!-- 33 -->
<g id="node34" class="node"><title>33</title>
<path fill="none" stroke="#d8a456" stroke-width="2" stroke-dasharray="5,2" d="M409.349,-900C409.349,-900 309.685,-900 309.685,-900 303.685,-900 297.685,-894 297.685,-888 297.685,-888 297.685,-876 297.685,-876 297.685,-870 303.685,-864 309.685,-864 309.685,-864 409.349,-864 409.349,-864 415.349,-864 421.349,-870 421.349,-876 421.349,-876 421.349,-888 421.349,-888 421.349,-894 415.349,-900 409.349,-900"/>
<text text-anchor="middle" x="359.517" y="-884" font-family="sans" font-size="10.00">design_probes</text>
<text text-anchor="middle" x="359.517" y="-874" font-family="sans" font-size="10.00">chrom: NZ_CP020550.1</text>
</g>
<!-- 16&#45;&gt;33 -->
<g id="edge48" class="edge"><title>16&#45;&gt;33</title>
<path fill="none" stroke="grey" stroke-width="2" d="M291.011,-935.697C302.472,-926.881 316.575,-916.032 329.001,-906.474"/>
<polygon fill="grey" stroke="grey" stroke-width="2" points="331.489,-908.976 337.281,-900.104 327.221,-903.427 331.489,-908.976"/>
</g>
<!-- 34 -->
<g id="node35" class="node"><title>34</title>
<path fill="none" stroke="#97d856" stroke-width="2" stroke-dasharray="5,2" d="M228.114,-900C228.114,-900 180.92,-900 180.92,-900 174.92,-900 168.92,-894 168.92,-888 168.92,-888 168.92,-876 168.92,-876 168.92,-870 174.92,-864 180.92,-864 180.92,-864 228.114,-864 228.114,-864 234.114,-864 240.114,-870 240.114,-876 240.114,-876 240.114,-888 240.114,-888 240.114,-894 234.114,-900 228.114,-900"/>
<text text-anchor="middle" x="204.517" y="-879" font-family="sans" font-size="10.00">build_bowtie</text>
</g>
<!-- 16&#45;&gt;34 -->
<g id="edge49" class="edge"><title>16&#45;&gt;34</title>
<path fill="none" stroke="grey" stroke-width="2" d="M252.697,-935.697C244.947,-927.22 235.478,-916.864 226.993,-907.583"/>
<polygon fill="grey" stroke="grey" stroke-width="2" points="229.486,-905.123 220.155,-900.104 224.32,-909.846 229.486,-905.123"/>
</g>
<!-- 35 -->
<g id="node36" class="node"><title>35</title>
<path fill="none" stroke="#d8a456" stroke-width="2" stroke-dasharray="5,2" d="M138.349,-900C138.349,-900 38.6849,-900 38.6849,-900 32.6849,-900 26.6849,-894 26.6849,-888 26.6849,-888 26.6849,-876 26.6849,-876 26.6849,-870 32.6849,-864 38.6849,-864 38.6849,-864 138.349,-864 138.349,-864 144.349,-864 150.349,-870 150.349,-876 150.349,-876 150.349,-888 150.349,-888 150.349,-894 144.349,-900 138.349,-900"/>
<text text-anchor="middle" x="88.5171" y="-884" font-family="sans" font-size="10.00">design_probes</text>
<text text-anchor="middle" x="88.5171" y="-874" font-family="sans" font-size="10.00">chrom: NZ_CP020549.1</text>
</g>
<!-- 16&#45;&gt;35 -->
<g id="edge50" class="edge"><title>16&#45;&gt;35</title>
<path fill="none" stroke="grey" stroke-width="2" d="M227.221,-936.941C201.874,-927.083 169.152,-914.358 141.856,-903.743"/>
<polygon fill="grey" stroke="grey" stroke-width="2" points="143.037,-900.447 132.448,-900.084 140.5,-906.971 143.037,-900.447"/>
</g>
<!-- 17&#45;&gt;11 -->
<g id="edge21" class="edge"><title>17&#45;&gt;11</title>
<path fill="none" stroke="grey" stroke-width="2" d="M500.023,-359.697C499.802,-351.983 499.537,-342.712 499.292,-334.112"/>
<polygon fill="grey" stroke="grey" stroke-width="2" points="502.79,-334 499.006,-324.104 495.793,-334.2 502.79,-334"/>
</g>
<!-- 18 -->
<g id="node19" class="node"><title>18</title>
<path fill="none" stroke="#56d8a9" stroke-width="2" stroke-dasharray="5,2" d="M405.67,-468C405.67,-468 347.365,-468 347.365,-468 341.365,-468 335.365,-462 335.365,-456 335.365,-456 335.365,-444 335.365,-444 335.365,-438 341.365,-432 347.365,-432 347.365,-432 405.67,-432 405.67,-432 411.67,-432 417.67,-438 417.67,-444 417.67,-444 417.67,-456 417.67,-456 417.67,-462 411.67,-468 405.67,-468"/>
<text text-anchor="middle" x="376.517" y="-447" font-family="sans" font-size="10.00">filter_n_probes</text>
</g>
<!-- 18&#45;&gt;12 -->
<g id="edge22" class="edge"><title>18&#45;&gt;12</title>
<path fill="none" stroke="grey" stroke-width="2" d="M378,-431.697C378.661,-423.983 379.456,-414.712 380.193,-406.112"/>
<polygon fill="grey" stroke="grey" stroke-width="2" points="383.684,-406.367 381.051,-396.104 376.71,-405.769 383.684,-406.367"/>
</g>
<!-- 18&#45;&gt;13 -->
<g id="edge23" class="edge"><title>18&#45;&gt;13</title>
<path fill="none" stroke="grey" stroke-width="2" d="M358.472,-431.697C349.455,-423.05 338.399,-412.449 328.574,-403.027"/>
<polygon fill="grey" stroke="grey" stroke-width="2" points="330.995,-400.499 321.354,-396.104 326.15,-405.552 330.995,-400.499"/>
</g>
<!-- 19&#45;&gt;13 -->
<g id="edge24" class="edge"><title>19&#45;&gt;13</title>
<path fill="none" stroke="grey" stroke-width="2" d="M277.169,-431.697C281.153,-423.728 285.967,-414.1 290.385,-405.264"/>
<polygon fill="grey" stroke="grey" stroke-width="2" points="293.623,-406.614 294.965,-396.104 287.362,-403.483 293.623,-406.614"/>
</g>
<!-- 19&#45;&gt;15 -->
<g id="edge27" class="edge"><title>19&#45;&gt;15</title>
<path fill="none" stroke="grey" stroke-width="2" d="M257.146,-431.697C251.799,-423.559 245.313,-413.689 239.406,-404.701"/>
<polygon fill="grey" stroke="grey" stroke-width="2" points="242.174,-402.539 233.757,-396.104 236.324,-406.384 242.174,-402.539"/>
</g>
<!-- 20 -->
<g id="node21" class="node"><title>20</title>
<path fill="none" stroke="#56d8a9" stroke-width="2" stroke-dasharray="5,2" d="M178.67,-468C178.67,-468 120.365,-468 120.365,-468 114.365,-468 108.365,-462 108.365,-456 108.365,-456 108.365,-444 108.365,-444 108.365,-438 114.365,-432 120.365,-432 120.365,-432 178.67,-432 178.67,-432 184.67,-432 190.67,-438 190.67,-444 190.67,-444 190.67,-456 190.67,-456 190.67,-462 184.67,-468 178.67,-468"/>
<text text-anchor="middle" x="149.517" y="-447" font-family="sans" font-size="10.00">filter_n_probes</text>
</g>
<!-- 20&#45;&gt;14 -->
<g id="edge25" class="edge"><title>20&#45;&gt;14</title>
<path fill="none" stroke="grey" stroke-width="2" d="M148.034,-431.697C147.373,-423.983 146.578,-414.712 145.841,-406.112"/>
<polygon fill="grey" stroke="grey" stroke-width="2" points="149.324,-405.769 144.983,-396.104 142.35,-406.367 149.324,-405.769"/>
</g>
<!-- 20&#45;&gt;15 -->
<g id="edge26" class="edge"><title>20&#45;&gt;15</title>
<path fill="none" stroke="grey" stroke-width="2" d="M167.562,-431.697C176.579,-423.05 187.635,-412.449 197.46,-403.027"/>
<polygon fill="grey" stroke="grey" stroke-width="2" points="199.884,-405.552 204.68,-396.104 195.039,-400.499 199.884,-405.552"/>
</g>
<!-- 21 -->
<g id="node22" class="node"><title>21</title>
<path fill="none" stroke="#56d873" stroke-width="2" stroke-dasharray="5,2" d="M391.517,-540C391.517,-540 361.517,-540 361.517,-540 355.517,-540 349.517,-534 349.517,-528 349.517,-528 349.517,-516 349.517,-516 349.517,-510 355.517,-504 361.517,-504 361.517,-504 391.517,-504 391.517,-504 397.517,-504 403.517,-510 403.517,-516 403.517,-516 403.517,-528 403.517,-528 403.517,-534 397.517,-540 391.517,-540"/>
<text text-anchor="middle" x="376.517" y="-519" font-family="sans" font-size="10.00">score</text>
</g>
<!-- 21&#45;&gt;18 -->
<g id="edge29" class="edge"><title>21&#45;&gt;18</title>
<path fill="none" stroke="grey" stroke-width="2" d="M376.517,-503.697C376.517,-495.983 376.517,-486.712 376.517,-478.112"/>
<polygon fill="grey" stroke="grey" stroke-width="2" points="380.017,-478.104 376.517,-468.104 373.017,-478.104 380.017,-478.104"/>
</g>
<!-- 22 -->
<g id="node23" class="node"><title>22</title>
<path fill="none" stroke="#56d873" stroke-width="2" stroke-dasharray="5,2" d="M164.517,-540C164.517,-540 134.517,-540 134.517,-540 128.517,-540 122.517,-534 122.517,-528 122.517,-528 122.517,-516 122.517,-516 122.517,-510 128.517,-504 134.517,-504 134.517,-504 164.517,-504 164.517,-504 170.517,-504 176.517,-510 176.517,-516 176.517,-516 176.517,-528 176.517,-528 176.517,-534 170.517,-540 164.517,-540"/>
<text text-anchor="middle" x="149.517" y="-519" font-family="sans" font-size="10.00">score</text>
</g>
<!-- 22&#45;&gt;20 -->
<g id="edge31" class="edge"><title>22&#45;&gt;20</title>
<path fill="none" stroke="grey" stroke-width="2" d="M149.517,-503.697C149.517,-495.983 149.517,-486.712 149.517,-478.112"/>
<polygon fill="grey" stroke="grey" stroke-width="2" points="153.017,-478.104 149.517,-468.104 146.017,-478.104 153.017,-478.104"/>
</g>
<!-- 23 -->
<g id="node24" class="node"><title>23</title>
<path fill="none" stroke="#d6d856" stroke-width="2" stroke-dasharray="5,2" d="M405.061,-612C405.061,-612 347.973,-612 347.973,-612 341.973,-612 335.973,-606 335.973,-600 335.973,-600 335.973,-588 335.973,-588 335.973,-582 341.973,-576 347.973,-576 347.973,-576 405.061,-576 405.061,-576 411.061,-576 417.061,-582 417.061,-588 417.061,-588 417.061,-600 417.061,-600 417.061,-606 411.061,-612 405.061,-612"/>
<text text-anchor="middle" x="376.517" y="-591" font-family="sans" font-size="10.00">predict_duplex</text>
</g>
<!-- 23&#45;&gt;21 -->
<g id="edge32" class="edge"><title>23&#45;&gt;21</title>
<path fill="none" stroke="grey" stroke-width="2" d="M376.517,-575.697C376.517,-567.983 376.517,-558.712 376.517,-550.112"/>
<polygon fill="grey" stroke="grey" stroke-width="2" points="380.017,-550.104 376.517,-540.104 373.017,-550.104 380.017,-550.104"/>
</g>
<!-- 24 -->
<g id="node25" class="node"><title>24</title>
<path fill="none" stroke="#d6d856" stroke-width="2" stroke-dasharray="5,2" d="M178.061,-612C178.061,-612 120.973,-612 120.973,-612 114.973,-612 108.973,-606 108.973,-600 108.973,-600 108.973,-588 108.973,-588 108.973,-582 114.973,-576 120.973,-576 120.973,-576 178.061,-576 178.061,-576 184.061,-576 190.061,-582 190.061,-588 190.061,-588 190.061,-600 190.061,-600 190.061,-606 184.061,-612 178.061,-612"/>
<text text-anchor="middle" x="149.517" y="-591" font-family="sans" font-size="10.00">predict_duplex</text>
</g>
<!-- 24&#45;&gt;22 -->
<g id="edge33" class="edge"><title>24&#45;&gt;22</title>
<path fill="none" stroke="grey" stroke-width="2" d="M149.517,-575.697C149.517,-567.983 149.517,-558.712 149.517,-550.112"/>
<polygon fill="grey" stroke="grey" stroke-width="2" points="153.017,-550.104 149.517,-540.104 146.017,-550.104 153.017,-550.104"/>
</g>
<!-- 25 -->
<g id="node26" class="node"><title>25</title>
<path fill="none" stroke="#56d89a" stroke-width="2" stroke-dasharray="5,2" d="M406.273,-684C406.273,-684 346.761,-684 346.761,-684 340.761,-684 334.761,-678 334.761,-672 334.761,-672 334.761,-660 334.761,-660 334.761,-654 340.761,-648 346.761,-648 346.761,-648 406.273,-648 406.273,-648 412.273,-648 418.273,-654 418.273,-660 418.273,-660 418.273,-672 418.273,-672 418.273,-678 412.273,-684 406.273,-684"/>
<text text-anchor="middle" x="376.517" y="-663" font-family="sans" font-size="10.00">parse_pairwise</text>
</g>
<!-- 25&#45;&gt;23 -->
<g id="edge34" class="edge"><title>25&#45;&gt;23</title>
<path fill="none" stroke="grey" stroke-width="2" d="M376.517,-647.697C376.517,-639.983 376.517,-630.712 376.517,-622.112"/>
<polygon fill="grey" stroke="grey" stroke-width="2" points="380.017,-622.104 376.517,-612.104 373.017,-622.104 380.017,-622.104"/>
</g>
<!-- 26 -->
<g id="node27" class="node"><title>26</title>
<path fill="none" stroke="#56d89a" stroke-width="2" stroke-dasharray="5,2" d="M179.273,-684C179.273,-684 119.761,-684 119.761,-684 113.761,-684 107.761,-678 107.761,-672 107.761,-672 107.761,-660 107.761,-660 107.761,-654 113.761,-648 119.761,-648 119.761,-648 179.273,-648 179.273,-648 185.273,-648 191.273,-654 191.273,-660 191.273,-660 191.273,-672 191.273,-672 191.273,-678 185.273,-684 179.273,-684"/>
<text text-anchor="middle" x="149.517" y="-663" font-family="sans" font-size="10.00">parse_pairwise</text>
</g>
<!-- 26&#45;&gt;24 -->
<g id="edge35" class="edge"><title>26&#45;&gt;24</title>
<path fill="none" stroke="grey" stroke-width="2" d="M149.517,-647.697C149.517,-639.983 149.517,-630.712 149.517,-622.112"/>
<polygon fill="grey" stroke="grey" stroke-width="2" points="153.017,-622.104 149.517,-612.104 146.017,-622.104 153.017,-622.104"/>
</g>
<!-- 27 -->
<g id="node28" class="node"><title>27</title>
<path fill="none" stroke="#56b9d8" stroke-width="2" stroke-dasharray="5,2" d="M523.051,-756C523.051,-756 455.983,-756 455.983,-756 449.983,-756 443.983,-750 443.983,-744 443.983,-744 443.983,-732 443.983,-732 443.983,-726 449.983,-720 455.983,-720 455.983,-720 523.051,-720 523.051,-720 529.051,-720 535.051,-726 535.051,-732 535.051,-732 535.051,-744 535.051,-744 535.051,-750 529.051,-756 523.051,-756"/>
<text text-anchor="middle" x="489.517" y="-735" font-family="sans" font-size="10.00">sam_to_pairwise</text>
</g>
<!-- 27&#45;&gt;25 -->
<g id="edge36" class="edge"><title>27&#45;&gt;25</title>
<path fill="none" stroke="grey" stroke-width="2" d="M461.874,-719.876C447.099,-710.724 428.726,-699.342 412.814,-689.485"/>
<polygon fill="grey" stroke="grey" stroke-width="2" points="414.61,-686.481 404.266,-684.19 410.924,-692.431 414.61,-686.481"/>
</g>
<!-- 28 -->
<g id="node29" class="node"><title>28</title>
<path fill="none" stroke="#56d863" stroke-width="2" stroke-dasharray="5,2" d="M414.462,-756C414.462,-756 308.572,-756 308.572,-756 302.572,-756 296.572,-750 296.572,-744 296.572,-744 296.572,-732 296.572,-732 296.572,-726 302.572,-720 308.572,-720 308.572,-720 414.462,-720 414.462,-720 420.462,-720 426.462,-726 426.462,-732 426.462,-732 426.462,-744 426.462,-744 426.462,-750 420.462,-756 414.462,-756"/>
<text text-anchor="middle" x="361.517" y="-735" font-family="sans" font-size="10.00">extract_alignment_scores</text>
</g>
<!-- 28&#45;&gt;25 -->
<g id="edge37" class="edge"><title>28&#45;&gt;25</title>
<path fill="none" stroke="grey" stroke-width="2" d="M365.225,-719.697C366.878,-711.983 368.864,-702.712 370.707,-694.112"/>
<polygon fill="grey" stroke="grey" stroke-width="2" points="374.179,-694.616 372.852,-684.104 367.334,-693.149 374.179,-694.616"/>
</g>
<!-- 29 -->
<g id="node30" class="node"><title>29</title>
<path fill="none" stroke="#56b9d8" stroke-width="2" stroke-dasharray="5,2" d="M79.0513,-756C79.0513,-756 11.9829,-756 11.9829,-756 5.9829,-756 -0.0170963,-750 -0.0170963,-744 -0.0170963,-744 -0.0170963,-732 -0.0170963,-732 -0.0170963,-726 5.9829,-720 11.9829,-720 11.9829,-720 79.0513,-720 79.0513,-720 85.0513,-720 91.0513,-726 91.0513,-732 91.0513,-732 91.0513,-744 91.0513,-744 91.0513,-750 85.0513,-756 79.0513,-756"/>
<text text-anchor="middle" x="45.5171" y="-735" font-family="sans" font-size="10.00">sam_to_pairwise</text>
</g>
<!-- 29&#45;&gt;26 -->
<g id="edge38" class="edge"><title>29&#45;&gt;26</title>
<path fill="none" stroke="grey" stroke-width="2" d="M70.9584,-719.876C84.3045,-710.893 100.841,-699.763 115.295,-690.034"/>
<polygon fill="grey" stroke="grey" stroke-width="2" points="117.636,-692.677 123.978,-684.19 113.728,-686.87 117.636,-692.677"/>
</g>
<!-- 30 -->
<g id="node31" class="node"><title>30</title>
<path fill="none" stroke="#56d863" stroke-width="2" stroke-dasharray="5,2" d="M226.462,-756C226.462,-756 120.572,-756 120.572,-756 114.572,-756 108.572,-750 108.572,-744 108.572,-744 108.572,-732 108.572,-732 108.572,-726 114.572,-720 120.572,-720 120.572,-720 226.462,-720 226.462,-720 232.462,-720 238.462,-726 238.462,-732 238.462,-732 238.462,-744 238.462,-744 238.462,-750 232.462,-756 226.462,-756"/>
<text text-anchor="middle" x="173.517" y="-735" font-family="sans" font-size="10.00">extract_alignment_scores</text>
</g>
<!-- 30&#45;&gt;26 -->
<g id="edge39" class="edge"><title>30&#45;&gt;26</title>
<path fill="none" stroke="grey" stroke-width="2" d="M167.585,-719.697C164.911,-711.898 161.691,-702.509 158.716,-693.829"/>
<polygon fill="grey" stroke="grey" stroke-width="2" points="161.936,-692.429 155.381,-684.104 155.314,-694.699 161.936,-692.429"/>
</g>
<!-- 31 -->
<g id="node32" class="node"><title>31</title>
<path fill="none" stroke="#d87d56" stroke-width="2" stroke-dasharray="5,2" d="M385.283,-828C385.283,-828 335.751,-828 335.751,-828 329.751,-828 323.751,-822 323.751,-816 323.751,-816 323.751,-804 323.751,-804 323.751,-798 329.751,-792 335.751,-792 335.751,-792 385.283,-792 385.283,-792 391.283,-792 397.283,-798 397.283,-804 397.283,-804 397.283,-816 397.283,-816 397.283,-822 391.283,-828 385.283,-828"/>
<text text-anchor="middle" x="360.517" y="-807" font-family="sans" font-size="10.00">align_probes</text>
</g>
<!-- 31&#45;&gt;27 -->
<g id="edge40" class="edge"><title>31&#45;&gt;27</title>
<path fill="none" stroke="grey" stroke-width="2" d="M392.074,-791.876C409.175,-782.596 430.499,-771.025 448.836,-761.075"/>
<polygon fill="grey" stroke="grey" stroke-width="2" points="450.719,-764.035 457.839,-756.19 447.38,-757.883 450.719,-764.035"/>
</g>
<!-- 31&#45;&gt;28 -->
<g id="edge41" class="edge"><title>31&#45;&gt;28</title>
<path fill="none" stroke="grey" stroke-width="2" d="M360.764,-791.697C360.874,-783.983 361.007,-774.712 361.13,-766.112"/>
<polygon fill="grey" stroke="grey" stroke-width="2" points="364.629,-766.153 361.273,-756.104 357.63,-766.053 364.629,-766.153"/>
</g>
<!-- 32 -->
<g id="node33" class="node"><title>32</title>
<path fill="none" stroke="#d87d56" stroke-width="2" stroke-dasharray="5,2" d="M156.283,-828C156.283,-828 106.751,-828 106.751,-828 100.751,-828 94.751,-822 94.751,-816 94.751,-816 94.751,-804 94.751,-804 94.751,-798 100.751,-792 106.751,-792 106.751,-792 156.283,-792 156.283,-792 162.283,-792 168.283,-798 168.283,-804 168.283,-804 168.283,-816 168.283,-816 168.283,-822 162.283,-828 156.283,-828"/>
<text text-anchor="middle" x="131.517" y="-807" font-family="sans" font-size="10.00">align_probes</text>
</g>
<!-- 32&#45;&gt;29 -->
<g id="edge42" class="edge"><title>32&#45;&gt;29</title>
<path fill="none" stroke="grey" stroke-width="2" d="M110.259,-791.697C99.4277,-782.881 86.0993,-772.032 74.3568,-762.474"/>
<polygon fill="grey" stroke="grey" stroke-width="2" points="76.4961,-759.703 66.531,-756.104 72.0772,-765.132 76.4961,-759.703"/>
</g>
<!-- 32&#45;&gt;30 -->
<g id="edge43" class="edge"><title>32&#45;&gt;30</title>
<path fill="none" stroke="grey" stroke-width="2" d="M141.899,-791.697C146.782,-783.559 152.704,-773.689 158.096,-764.701"/>
<polygon fill="grey" stroke="grey" stroke-width="2" points="161.111,-766.48 163.254,-756.104 155.108,-762.879 161.111,-766.48"/>
</g>
<!-- 33&#45;&gt;31 -->
<g id="edge44" class="edge"><title>33&#45;&gt;31</title>
<path fill="none" stroke="grey" stroke-width="2" d="M359.764,-863.697C359.874,-855.983 360.007,-846.712 360.13,-838.112"/>
<polygon fill="grey" stroke="grey" stroke-width="2" points="363.629,-838.153 360.273,-828.104 356.63,-838.053 363.629,-838.153"/>
</g>
<!-- 34&#45;&gt;31 -->
<g id="edge45" class="edge"><title>34&#45;&gt;31</title>
<path fill="none" stroke="grey" stroke-width="2" d="M240.307,-864.941C262.383,-855.034 290.916,-842.231 314.643,-831.585"/>
<polygon fill="grey" stroke="grey" stroke-width="2" points="316.12,-834.758 323.811,-827.471 313.255,-828.371 316.12,-834.758"/>
</g>
<!-- 34&#45;&gt;32 -->
<g id="edge47" class="edge"><title>34&#45;&gt;32</title>
<path fill="none" stroke="grey" stroke-width="2" d="M186.472,-863.697C177.455,-855.05 166.399,-844.449 156.574,-835.027"/>
<polygon fill="grey" stroke="grey" stroke-width="2" points="158.995,-832.499 149.354,-828.104 154.15,-837.552 158.995,-832.499"/>
</g>
<!-- 35&#45;&gt;32 -->
<g id="edge46" class="edge"><title>35&#45;&gt;32</title>
<path fill="none" stroke="grey" stroke-width="2" d="M99.1463,-863.697C104.145,-855.559 110.208,-845.689 115.729,-836.701"/>
<polygon fill="grey" stroke="grey" stroke-width="2" points="118.758,-838.457 121.01,-828.104 112.794,-834.793 118.758,-838.457"/>
</g>
</g>
</svg>
