<?xml version="1.0" encoding="UTF-8" standalone="no"?>
<!DOCTYPE svg PUBLIC "-//W3C//DTD SVG 1.1//EN"
 "http://www.w3.org/Graphics/SVG/1.1/DTD/svg11.dtd">
<!-- Generated by graphviz version 2.38.0 (20140413.2041)
 -->
<!-- Title: snakemake_dag Pages: 1 -->
<svg width="972pt" height="980pt"
 viewBox="0.00 0.00 972.32 980.00" xmlns="http://www.w3.org/2000/svg" xmlns:xlink="http://www.w3.org/1999/xlink">
<g id="graph0" class="graph" transform="scale(1 1) rotate(0) translate(4 976)">
<title>snakemake_dag</title>
<polygon fill="white" stroke="none" points="-4,4 -4,-976 968.315,-976 968.315,4 -4,4"/>
<!-- 0 -->
<g id="node1" class="node"><title>0</title>
<path fill="none" stroke="#56d873" stroke-width="2" stroke-dasharray="5,2" d="M454.973,-36C454.973,-36 424.973,-36 424.973,-36 418.973,-36 412.973,-30 412.973,-24 412.973,-24 412.973,-12 412.973,-12 412.973,-6 418.973,-0 424.973,-0 424.973,-0 454.973,-0 454.973,-0 460.973,-0 466.973,-6 466.973,-12 466.973,-12 466.973,-24 466.973,-24 466.973,-30 460.973,-36 454.973,-36"/>
<text text-anchor="middle" x="439.973" y="-15" font-family="sans" font-size="10.00">all</text>
</g>
<!-- 1 -->
<g id="node2" class="node"><title>1</title>
<path fill="none" stroke="#567bd8" stroke-width="2" stroke-dasharray="5,2" d="M454.973,-108C454.973,-108 424.973,-108 424.973,-108 418.973,-108 412.973,-102 412.973,-96 412.973,-96 412.973,-84 412.973,-84 412.973,-78 418.973,-72 424.973,-72 424.973,-72 454.973,-72 454.973,-72 460.973,-72 466.973,-78 466.973,-84 466.973,-84 466.973,-96 466.973,-96 466.973,-102 460.973,-108 454.973,-108"/>
<text text-anchor="middle" x="439.973" y="-87" font-family="sans" font-size="10.00">finish</text>
</g>
<!-- 1&#45;&gt;0 -->
<g id="edge1" class="edge"><title>1&#45;&gt;0</title>
<path fill="none" stroke="grey" stroke-width="2" d="M439.973,-71.6966C439.973,-63.9827 439.973,-54.7125 439.973,-46.1124"/>
<polygon fill="grey" stroke="grey" stroke-width="2" points="443.473,-46.1043 439.973,-36.1043 436.473,-46.1044 443.473,-46.1043"/>
</g>
<!-- 2 -->
<g id="node3" class="node"><title>2</title>
<path fill="none" stroke="#d8a456" stroke-width="2" stroke-dasharray="5,2" d="M373.394,-180C373.394,-180 332.552,-180 332.552,-180 326.552,-180 320.552,-174 320.552,-168 320.552,-168 320.552,-156 320.552,-156 320.552,-150 326.552,-144 332.552,-144 332.552,-144 373.394,-144 373.394,-144 379.394,-144 385.394,-150 385.394,-156 385.394,-156 385.394,-168 385.394,-168 385.394,-174 379.394,-180 373.394,-180"/>
<text text-anchor="middle" x="352.973" y="-159" font-family="sans" font-size="10.00">zip_probes</text>
</g>
<!-- 2&#45;&gt;1 -->
<g id="edge2" class="edge"><title>2&#45;&gt;1</title>
<path fill="none" stroke="grey" stroke-width="2" d="M374.478,-143.697C385.435,-134.881 398.919,-124.032 410.798,-114.474"/>
<polygon fill="grey" stroke="grey" stroke-width="2" points="413.117,-117.1 418.714,-108.104 408.729,-111.646 413.117,-117.1"/>
</g>
<!-- 3 -->
<g id="node4" class="node"><title>3</title>
<path fill="none" stroke="#d86656" stroke-width="2" stroke-dasharray="5,2" d="M558.295,-180C558.295,-180 503.65,-180 503.65,-180 497.65,-180 491.65,-174 491.65,-168 491.65,-168 491.65,-156 491.65,-156 491.65,-150 497.65,-144 503.65,-144 503.65,-144 558.295,-144 558.295,-144 564.295,-144 570.295,-150 570.295,-156 570.295,-156 570.295,-168 570.295,-168 570.295,-174 564.295,-180 558.295,-180"/>
<text text-anchor="middle" x="530.973" y="-159" font-family="sans" font-size="10.00">zip_refseq_db</text>
</g>
<!-- 3&#45;&gt;1 -->
<g id="edge3" class="edge"><title>3&#45;&gt;1</title>
<path fill="none" stroke="grey" stroke-width="2" d="M508.478,-143.697C497.018,-134.881 482.914,-124.032 470.489,-114.474"/>
<polygon fill="grey" stroke="grey" stroke-width="2" points="472.269,-111.427 462.208,-108.104 468.001,-116.976 472.269,-111.427"/>
</g>
<!-- 4 -->
<g id="node5" class="node"><title>4</title>
<path fill="none" stroke="#56c9d8" stroke-width="2" stroke-dasharray="5,2" d="M459.785,-180C459.785,-180 420.16,-180 420.16,-180 414.16,-180 408.16,-174 408.16,-168 408.16,-168 408.16,-156 408.16,-156 408.16,-150 414.16,-144 420.16,-144 420.16,-144 459.785,-144 459.785,-144 465.785,-144 471.785,-150 471.785,-156 471.785,-156 471.785,-168 471.785,-168 471.785,-174 465.785,-180 459.785,-180"/>
<text text-anchor="middle" x="439.973" y="-159" font-family="sans" font-size="10.00">zip_iso_db</text>
</g>
<!-- 4&#45;&gt;1 -->
<g id="edge4" class="edge"><title>4&#45;&gt;1</title>
<path fill="none" stroke="grey" stroke-width="2" d="M439.973,-143.697C439.973,-135.983 439.973,-126.712 439.973,-118.112"/>
<polygon fill="grey" stroke="grey" stroke-width="2" points="443.473,-118.104 439.973,-108.104 436.473,-118.104 443.473,-118.104"/>
</g>
<!-- 5 -->
<g id="node6" class="node"><title>5</title>
<path fill="none" stroke="#70d856" stroke-width="2" stroke-dasharray="5,2" d="M376.457,-252C376.457,-252 319.489,-252 319.489,-252 313.489,-252 307.489,-246 307.489,-240 307.489,-240 307.489,-228 307.489,-228 307.489,-222 313.489,-216 319.489,-216 319.489,-216 376.457,-216 376.457,-216 382.457,-216 388.457,-222 388.457,-228 388.457,-228 388.457,-240 388.457,-240 388.457,-246 382.457,-252 376.457,-252"/>
<text text-anchor="middle" x="347.973" y="-231" font-family="sans" font-size="10.00">merge_probes</text>
</g>
<!-- 5&#45;&gt;2 -->
<g id="edge5" class="edge"><title>5&#45;&gt;2</title>
<path fill="none" stroke="grey" stroke-width="2" d="M349.209,-215.697C349.76,-207.983 350.422,-198.712 351.036,-190.112"/>
<polygon fill="grey" stroke="grey" stroke-width="2" points="354.529,-190.328 351.751,-180.104 347.547,-189.83 354.529,-190.328"/>
</g>
<!-- 6 -->
<g id="node7" class="node"><title>6</title>
<path fill="none" stroke="#56b9d8" stroke-width="2" stroke-dasharray="5,2" d="M562.197,-252C562.197,-252 503.749,-252 503.749,-252 497.749,-252 491.749,-246 491.749,-240 491.749,-240 491.749,-228 491.749,-228 491.749,-222 497.749,-216 503.749,-216 503.749,-216 562.197,-216 562.197,-216 568.197,-216 574.197,-222 574.197,-228 574.197,-228 574.197,-240 574.197,-240 574.197,-246 568.197,-252 562.197,-252"/>
<text text-anchor="middle" x="532.973" y="-231" font-family="sans" font-size="10.00">gen_refseq_db</text>
</g>
<!-- 6&#45;&gt;3 -->
<g id="edge6" class="edge"><title>6&#45;&gt;3</title>
<path fill="none" stroke="grey" stroke-width="2" d="M532.478,-215.697C532.258,-207.983 531.993,-198.712 531.747,-190.112"/>
<polygon fill="grey" stroke="grey" stroke-width="2" points="535.246,-190 531.461,-180.104 528.248,-190.2 535.246,-190"/>
</g>
<!-- 7 -->
<g id="node8" class="node"><title>7</title>
<path fill="none" stroke="#88d856" stroke-width="2" stroke-dasharray="5,2" d="M461.687,-252C461.687,-252 418.258,-252 418.258,-252 412.258,-252 406.258,-246 406.258,-240 406.258,-240 406.258,-228 406.258,-228 406.258,-222 412.258,-216 418.258,-216 418.258,-216 461.687,-216 461.687,-216 467.687,-216 473.687,-222 473.687,-228 473.687,-228 473.687,-240 473.687,-240 473.687,-246 467.687,-252 461.687,-252"/>
<text text-anchor="middle" x="439.973" y="-231" font-family="sans" font-size="10.00">gen_iso_db</text>
</g>
<!-- 7&#45;&gt;4 -->
<g id="edge7" class="edge"><title>7&#45;&gt;4</title>
<path fill="none" stroke="grey" stroke-width="2" d="M439.973,-215.697C439.973,-207.983 439.973,-198.712 439.973,-190.112"/>
<polygon fill="grey" stroke="grey" stroke-width="2" points="443.473,-190.104 439.973,-180.104 436.473,-190.104 443.473,-190.104"/>
</g>
<!-- 8 -->
<g id="node9" class="node"><title>8</title>
<path fill="none" stroke="#61d856" stroke-width="2" stroke-dasharray="5,2" d="M371.457,-324C371.457,-324 324.489,-324 324.489,-324 318.489,-324 312.489,-318 312.489,-312 312.489,-312 312.489,-300 312.489,-300 312.489,-294 318.489,-288 324.489,-288 324.489,-288 371.457,-288 371.457,-288 377.457,-288 383.457,-294 383.457,-300 383.457,-300 383.457,-312 383.457,-312 383.457,-318 377.457,-324 371.457,-324"/>
<text text-anchor="middle" x="347.973" y="-303" font-family="sans" font-size="10.00">final_probes</text>
</g>
<!-- 8&#45;&gt;5 -->
<g id="edge8" class="edge"><title>8&#45;&gt;5</title>
<path fill="none" stroke="grey" stroke-width="2" d="M347.973,-287.697C347.973,-279.983 347.973,-270.712 347.973,-262.112"/>
<polygon fill="grey" stroke="grey" stroke-width="2" points="351.473,-262.104 347.973,-252.104 344.473,-262.104 351.473,-262.104"/>
</g>
<!-- 8&#45;&gt;6 -->
<g id="edge11" class="edge"><title>8&#45;&gt;6</title>
<path fill="none" stroke="grey" stroke-width="2" d="M383.643,-291.503C411.618,-280.918 450.916,-266.048 482.177,-254.22"/>
<polygon fill="grey" stroke="grey" stroke-width="2" points="483.485,-257.467 491.599,-250.655 481.007,-250.92 483.485,-257.467"/>
</g>
<!-- 8&#45;&gt;7 -->
<g id="edge15" class="edge"><title>8&#45;&gt;7</title>
<path fill="none" stroke="grey" stroke-width="2" d="M370.714,-287.697C382.412,-278.796 396.834,-267.823 409.483,-258.199"/>
<polygon fill="grey" stroke="grey" stroke-width="2" points="411.654,-260.945 417.493,-252.104 407.415,-255.374 411.654,-260.945"/>
</g>
<!-- 9 -->
<g id="node10" class="node"><title>9</title>
<path fill="none" stroke="#61d856" stroke-width="2" stroke-dasharray="5,2" d="M461.457,-324C461.457,-324 414.489,-324 414.489,-324 408.489,-324 402.489,-318 402.489,-312 402.489,-312 402.489,-300 402.489,-300 402.489,-294 408.489,-288 414.489,-288 414.489,-288 461.457,-288 461.457,-288 467.457,-288 473.457,-294 473.457,-300 473.457,-300 473.457,-312 473.457,-312 473.457,-318 467.457,-324 461.457,-324"/>
<text text-anchor="middle" x="437.973" y="-303" font-family="sans" font-size="10.00">final_probes</text>
</g>
<!-- 9&#45;&gt;5 -->
<g id="edge9" class="edge"><title>9&#45;&gt;5</title>
<path fill="none" stroke="grey" stroke-width="2" d="M415.725,-287.697C404.391,-278.881 390.442,-268.032 378.154,-258.474"/>
<polygon fill="grey" stroke="grey" stroke-width="2" points="380.006,-255.481 369.964,-252.104 375.709,-261.007 380.006,-255.481"/>
</g>
<!-- 9&#45;&gt;6 -->
<g id="edge12" class="edge"><title>9&#45;&gt;6</title>
<path fill="none" stroke="grey" stroke-width="2" d="M461.456,-287.697C473.535,-278.796 488.427,-267.823 501.488,-258.199"/>
<polygon fill="grey" stroke="grey" stroke-width="2" points="503.785,-260.854 509.76,-252.104 499.633,-255.219 503.785,-260.854"/>
</g>
<!-- 9&#45;&gt;7 -->
<g id="edge16" class="edge"><title>9&#45;&gt;7</title>
<path fill="none" stroke="grey" stroke-width="2" d="M438.467,-287.697C438.687,-279.983 438.952,-270.712 439.198,-262.112"/>
<polygon fill="grey" stroke="grey" stroke-width="2" points="442.697,-262.2 439.484,-252.104 435.7,-262 442.697,-262.2"/>
</g>
<!-- 10 -->
<g id="node11" class="node"><title>10</title>
<path fill="none" stroke="#61d856" stroke-width="2" stroke-dasharray="5,2" d="M549.457,-324C549.457,-324 502.489,-324 502.489,-324 496.489,-324 490.489,-318 490.489,-312 490.489,-312 490.489,-300 490.489,-300 490.489,-294 496.489,-288 502.489,-288 502.489,-288 549.457,-288 549.457,-288 555.457,-288 561.457,-294 561.457,-300 561.457,-300 561.457,-312 561.457,-312 561.457,-318 555.457,-324 549.457,-324"/>
<text text-anchor="middle" x="525.973" y="-303" font-family="sans" font-size="10.00">final_probes</text>
</g>
<!-- 10&#45;&gt;5 -->
<g id="edge10" class="edge"><title>10&#45;&gt;5</title>
<path fill="none" stroke="grey" stroke-width="2" d="M490.38,-291.003C463.946,-280.607 427.538,-266.29 398.152,-254.733"/>
<polygon fill="grey" stroke="grey" stroke-width="2" points="399.067,-251.333 388.48,-250.93 396.505,-257.847 399.067,-251.333"/>
</g>
<!-- 10&#45;&gt;6 -->
<g id="edge13" class="edge"><title>10&#45;&gt;6</title>
<path fill="none" stroke="grey" stroke-width="2" d="M527.703,-287.697C528.474,-279.983 529.401,-270.712 530.261,-262.112"/>
<polygon fill="grey" stroke="grey" stroke-width="2" points="533.75,-262.403 531.262,-252.104 526.784,-261.706 533.75,-262.403"/>
</g>
<!-- 10&#45;&gt;7 -->
<g id="edge17" class="edge"><title>10&#45;&gt;7</title>
<path fill="none" stroke="grey" stroke-width="2" d="M504.714,-287.697C493.883,-278.881 480.555,-268.032 468.812,-258.474"/>
<polygon fill="grey" stroke="grey" stroke-width="2" points="470.952,-255.703 460.987,-252.104 466.533,-261.132 470.952,-255.703"/>
</g>
<!-- 11 -->
<g id="node12" class="node"><title>11</title>
<path fill="none" stroke="#d87d56" stroke-width="2" stroke-dasharray="5,2" d="M890.668,-468C890.668,-468 857.278,-468 857.278,-468 851.278,-468 845.278,-462 845.278,-456 845.278,-456 845.278,-444 845.278,-444 845.278,-438 851.278,-432 857.278,-432 857.278,-432 890.668,-432 890.668,-432 896.668,-432 902.668,-438 902.668,-444 902.668,-444 902.668,-456 902.668,-456 902.668,-462 896.668,-468 890.668,-468"/>
<text text-anchor="middle" x="873.973" y="-447" font-family="sans" font-size="10.00">parse_gtf</text>
</g>
<!-- 11&#45;&gt;6 -->
<g id="edge14" class="edge"><title>11&#45;&gt;6</title>
<path fill="none" stroke="grey" stroke-width="2" d="M902.903,-439.237C922.286,-431.009 946.315,-417.14 957.973,-396 965.699,-381.989 966.795,-373.348 957.973,-360 916.317,-296.974 688.303,-257.067 584.49,-241.912"/>
<polygon fill="grey" stroke="grey" stroke-width="2" points="584.941,-238.441 574.544,-240.481 583.944,-245.37 584.941,-238.441"/>
</g>
<!-- 20 -->
<g id="node21" class="node"><title>20</title>
<path fill="none" stroke="#56a2d8" stroke-width="2" stroke-dasharray="5,2" d="M936.985,-396C936.985,-396 820.96,-396 820.96,-396 814.96,-396 808.96,-390 808.96,-384 808.96,-384 808.96,-372 808.96,-372 808.96,-366 814.96,-360 820.96,-360 820.96,-360 936.985,-360 936.985,-360 942.985,-360 948.985,-366 948.985,-372 948.985,-372 948.985,-384 948.985,-384 948.985,-390 942.985,-396 936.985,-396"/>
<text text-anchor="middle" x="878.973" y="-380" font-family="sans" font-size="10.00">flatten_isoforms</text>
<text text-anchor="middle" x="878.973" y="-370" font-family="sans" font-size="10.00">chrom_gtf: NZ_CP072338.1</text>
</g>
<!-- 11&#45;&gt;20 -->
<g id="edge37" class="edge"><title>11&#45;&gt;20</title>
<path fill="none" stroke="grey" stroke-width="2" d="M875.209,-431.697C875.76,-423.983 876.422,-414.712 877.036,-406.112"/>
<polygon fill="grey" stroke="grey" stroke-width="2" points="880.529,-406.328 877.751,-396.104 873.547,-405.83 880.529,-406.328"/>
</g>
<!-- 21 -->
<g id="node22" class="node"><title>21</title>
<path fill="none" stroke="#56a2d8" stroke-width="2" stroke-dasharray="5,2" d="M777.985,-396C777.985,-396 661.96,-396 661.96,-396 655.96,-396 649.96,-390 649.96,-384 649.96,-384 649.96,-372 649.96,-372 649.96,-366 655.96,-360 661.96,-360 661.96,-360 777.985,-360 777.985,-360 783.985,-360 789.985,-366 789.985,-372 789.985,-372 789.985,-384 789.985,-384 789.985,-390 783.985,-396 777.985,-396"/>
<text text-anchor="middle" x="719.973" y="-380" font-family="sans" font-size="10.00">flatten_isoforms</text>
<text text-anchor="middle" x="719.973" y="-370" font-family="sans" font-size="10.00">chrom_gtf: NZ_CP072339.1</text>
</g>
<!-- 11&#45;&gt;21 -->
<g id="edge38" class="edge"><title>11&#45;&gt;21</title>
<path fill="none" stroke="grey" stroke-width="2" d="M845.006,-435.834C822.968,-425.816 792.19,-411.826 766.685,-400.233"/>
<polygon fill="grey" stroke="grey" stroke-width="2" points="768.105,-397.034 757.553,-396.082 765.208,-403.406 768.105,-397.034"/>
</g>
<!-- 12 -->
<g id="node13" class="node"><title>12</title>
<path fill="none" stroke="#d85656" stroke-width="2" stroke-dasharray="5,2" d="M767.99,-324C767.99,-324 671.955,-324 671.955,-324 665.955,-324 659.955,-318 659.955,-312 659.955,-312 659.955,-300 659.955,-300 659.955,-294 665.955,-288 671.955,-288 671.955,-288 767.99,-288 767.99,-288 773.99,-288 779.99,-294 779.99,-300 779.99,-300 779.99,-312 779.99,-312 779.99,-318 773.99,-324 767.99,-324"/>
<text text-anchor="middle" x="719.973" y="-303" font-family="sans" font-size="10.00">merge_flat_annotations</text>
</g>
<!-- 12&#45;&gt;7 -->
<g id="edge18" class="edge"><title>12&#45;&gt;7</title>
<path fill="none" stroke="grey" stroke-width="2" d="M659.884,-294.262C613.831,-285.419 548.67,-271.585 483.657,-251.973"/>
<polygon fill="grey" stroke="grey" stroke-width="2" points="484.655,-248.618 474.068,-249.037 482.606,-255.312 484.655,-248.618"/>
</g>
<!-- 13 -->
<g id="node14" class="node"><title>13</title>
<path fill="none" stroke="#d88d56" stroke-width="2" stroke-dasharray="5,2" d="M222.833,-396C222.833,-396 187.112,-396 187.112,-396 181.112,-396 175.112,-390 175.112,-384 175.112,-384 175.112,-372 175.112,-372 175.112,-366 181.112,-360 187.112,-360 187.112,-360 222.833,-360 222.833,-360 228.833,-360 234.833,-366 234.833,-372 234.833,-372 234.833,-384 234.833,-384 234.833,-390 228.833,-396 222.833,-396"/>
<text text-anchor="middle" x="204.973" y="-375" font-family="sans" font-size="10.00">calc_prob</text>
</g>
<!-- 13&#45;&gt;8 -->
<g id="edge19" class="edge"><title>13&#45;&gt;8</title>
<path fill="none" stroke="grey" stroke-width="2" d="M234.95,-362.326C254.961,-352.53 281.612,-339.484 304.009,-328.521"/>
<polygon fill="grey" stroke="grey" stroke-width="2" points="305.552,-331.662 312.995,-324.122 302.475,-325.375 305.552,-331.662"/>
</g>
<!-- 14 -->
<g id="node15" class="node"><title>14</title>
<path fill="none" stroke="#bed856" stroke-width="2" stroke-dasharray="5,2" d="M303.148,-396C303.148,-396 264.797,-396 264.797,-396 258.797,-396 252.797,-390 252.797,-384 252.797,-384 252.797,-372 252.797,-372 252.797,-366 258.797,-360 264.797,-360 264.797,-360 303.148,-360 303.148,-360 309.148,-360 315.148,-366 315.148,-372 315.148,-372 315.148,-384 315.148,-384 315.148,-390 309.148,-396 303.148,-396"/>
<text text-anchor="middle" x="283.973" y="-375" font-family="sans" font-size="10.00">max_kmer</text>
</g>
<!-- 14&#45;&gt;8 -->
<g id="edge20" class="edge"><title>14&#45;&gt;8</title>
<path fill="none" stroke="grey" stroke-width="2" d="M299.793,-359.697C307.543,-351.22 317.012,-340.864 325.497,-331.583"/>
<polygon fill="grey" stroke="grey" stroke-width="2" points="328.17,-333.846 332.334,-324.104 323.004,-329.123 328.17,-333.846"/>
</g>
<!-- 15 -->
<g id="node16" class="node"><title>15</title>
<path fill="none" stroke="#d88d56" stroke-width="2" stroke-dasharray="5,2" d="M380.833,-396C380.833,-396 345.112,-396 345.112,-396 339.112,-396 333.112,-390 333.112,-384 333.112,-384 333.112,-372 333.112,-372 333.112,-366 339.112,-360 345.112,-360 345.112,-360 380.833,-360 380.833,-360 386.833,-360 392.833,-366 392.833,-372 392.833,-372 392.833,-384 392.833,-384 392.833,-390 386.833,-396 380.833,-396"/>
<text text-anchor="middle" x="362.973" y="-375" font-family="sans" font-size="10.00">calc_prob</text>
</g>
<!-- 15&#45;&gt;9 -->
<g id="edge21" class="edge"><title>15&#45;&gt;9</title>
<path fill="none" stroke="grey" stroke-width="2" d="M381.512,-359.697C390.776,-351.05 402.135,-340.449 412.229,-331.027"/>
<polygon fill="grey" stroke="grey" stroke-width="2" points="414.724,-333.486 419.647,-324.104 409.948,-328.369 414.724,-333.486"/>
</g>
<!-- 16 -->
<g id="node17" class="node"><title>16</title>
<path fill="none" stroke="#bed856" stroke-width="2" stroke-dasharray="5,2" d="M461.148,-396C461.148,-396 422.797,-396 422.797,-396 416.797,-396 410.797,-390 410.797,-384 410.797,-384 410.797,-372 410.797,-372 410.797,-366 416.797,-360 422.797,-360 422.797,-360 461.148,-360 461.148,-360 467.148,-360 473.148,-366 473.148,-372 473.148,-372 473.148,-384 473.148,-384 473.148,-390 467.148,-396 461.148,-396"/>
<text text-anchor="middle" x="441.973" y="-375" font-family="sans" font-size="10.00">max_kmer</text>
</g>
<!-- 16&#45;&gt;9 -->
<g id="edge22" class="edge"><title>16&#45;&gt;9</title>
<path fill="none" stroke="grey" stroke-width="2" d="M440.984,-359.697C440.543,-351.983 440.013,-342.712 439.522,-334.112"/>
<polygon fill="grey" stroke="grey" stroke-width="2" points="443.015,-333.888 438.95,-324.104 436.026,-334.288 443.015,-333.888"/>
</g>
<!-- 17 -->
<g id="node18" class="node"><title>17</title>
<path fill="none" stroke="#d88d56" stroke-width="2" stroke-dasharray="5,2" d="M619.833,-396C619.833,-396 584.112,-396 584.112,-396 578.112,-396 572.112,-390 572.112,-384 572.112,-384 572.112,-372 572.112,-372 572.112,-366 578.112,-360 584.112,-360 584.112,-360 619.833,-360 619.833,-360 625.833,-360 631.833,-366 631.833,-372 631.833,-372 631.833,-384 631.833,-384 631.833,-390 625.833,-396 619.833,-396"/>
<text text-anchor="middle" x="601.973" y="-375" font-family="sans" font-size="10.00">calc_prob</text>
</g>
<!-- 17&#45;&gt;10 -->
<g id="edge23" class="edge"><title>17&#45;&gt;10</title>
<path fill="none" stroke="grey" stroke-width="2" d="M583.186,-359.697C573.799,-351.05 562.288,-340.449 552.059,-331.027"/>
<polygon fill="grey" stroke="grey" stroke-width="2" points="554.27,-328.305 544.543,-324.104 549.527,-333.454 554.27,-328.305"/>
</g>
<!-- 18 -->
<g id="node19" class="node"><title>18</title>
<path fill="none" stroke="#bed856" stroke-width="2" stroke-dasharray="5,2" d="M542.148,-396C542.148,-396 503.797,-396 503.797,-396 497.797,-396 491.797,-390 491.797,-384 491.797,-384 491.797,-372 491.797,-372 491.797,-366 497.797,-360 503.797,-360 503.797,-360 542.148,-360 542.148,-360 548.148,-360 554.148,-366 554.148,-372 554.148,-372 554.148,-384 554.148,-384 554.148,-390 548.148,-396 542.148,-396"/>
<text text-anchor="middle" x="522.973" y="-375" font-family="sans" font-size="10.00">max_kmer</text>
</g>
<!-- 18&#45;&gt;10 -->
<g id="edge24" class="edge"><title>18&#45;&gt;10</title>
<path fill="none" stroke="grey" stroke-width="2" d="M523.714,-359.697C524.045,-351.983 524.442,-342.712 524.811,-334.112"/>
<polygon fill="grey" stroke="grey" stroke-width="2" points="528.308,-334.245 525.24,-324.104 521.315,-333.945 528.308,-334.245"/>
</g>
<!-- 19 -->
<g id="node20" class="node"><title>19</title>
<path fill="none" stroke="#56d8c1" stroke-width="2" stroke-dasharray="5,2" d="M507.187,-972C507.187,-972 448.758,-972 448.758,-972 442.758,-972 436.758,-966 436.758,-960 436.758,-960 436.758,-948 436.758,-948 436.758,-942 442.758,-936 448.758,-936 448.758,-936 507.187,-936 507.187,-936 513.187,-936 519.187,-942 519.187,-948 519.187,-948 519.187,-960 519.187,-960 519.187,-966 513.187,-972 507.187,-972"/>
<text text-anchor="middle" x="477.973" y="-951" font-family="sans" font-size="10.00">parse_genome</text>
</g>
<!-- 19&#45;&gt;11 -->
<g id="edge25" class="edge"><title>19&#45;&gt;11</title>
<path fill="none" stroke="grey" stroke-width="2" d="M519.397,-946.451C617.331,-929.801 854.973,-882.077 854.973,-811 854.973,-811 854.973,-811 854.973,-593 854.973,-552.86 862.523,-506.897 868.105,-478.405"/>
<polygon fill="grey" stroke="grey" stroke-width="2" points="871.579,-478.883 870.128,-468.388 864.717,-477.498 871.579,-478.883"/>
</g>
<!-- 23 -->
<g id="node24" class="node"><title>23</title>
<path fill="none" stroke="#97d856" stroke-width="2" stroke-dasharray="5,2" d="M519.952,-468C519.952,-468 467.994,-468 467.994,-468 461.994,-468 455.994,-462 455.994,-456 455.994,-456 455.994,-444 455.994,-444 455.994,-438 461.994,-432 467.994,-432 467.994,-432 519.952,-432 519.952,-432 525.952,-432 531.952,-438 531.952,-444 531.952,-444 531.952,-456 531.952,-456 531.952,-462 525.952,-468 519.952,-468"/>
<text text-anchor="middle" x="493.973" y="-447" font-family="sans" font-size="10.00">build_jellyfish</text>
</g>
<!-- 19&#45;&gt;23 -->
<g id="edge40" class="edge"><title>19&#45;&gt;23</title>
<path fill="none" stroke="grey" stroke-width="2" d="M487.755,-935.798C493.182,-925.647 499.682,-912.397 503.973,-900 517.202,-861.778 522.973,-851.447 522.973,-811 522.973,-811 522.973,-811 522.973,-593 522.973,-552.215 511.346,-506.148 502.816,-477.84"/>
<polygon fill="grey" stroke="grey" stroke-width="2" points="506.149,-476.769 499.841,-468.257 499.464,-478.845 506.149,-476.769"/>
</g>
<!-- 44 -->
<g id="node45" class="node"><title>44</title>
<path fill="none" stroke="#56d863" stroke-width="2" stroke-dasharray="5,2" d="M248.805,-900C248.805,-900 149.141,-900 149.141,-900 143.141,-900 137.141,-894 137.141,-888 137.141,-888 137.141,-876 137.141,-876 137.141,-870 143.141,-864 149.141,-864 149.141,-864 248.805,-864 248.805,-864 254.805,-864 260.805,-870 260.805,-876 260.805,-876 260.805,-888 260.805,-888 260.805,-894 254.805,-900 248.805,-900"/>
<text text-anchor="middle" x="198.973" y="-884" font-family="sans" font-size="10.00">design_probes</text>
<text text-anchor="middle" x="198.973" y="-874" font-family="sans" font-size="10.00">chrom: NZ_CP072339.1</text>
</g>
<!-- 19&#45;&gt;44 -->
<g id="edge67" class="edge"><title>19&#45;&gt;44</title>
<path fill="none" stroke="grey" stroke-width="2" d="M436.505,-942.596C392.867,-931.647 323.35,-914.206 270.772,-901.014"/>
<polygon fill="grey" stroke="grey" stroke-width="2" points="271.379,-897.558 260.828,-898.519 269.676,-904.348 271.379,-897.558"/>
</g>
<!-- 45 -->
<g id="node46" class="node"><title>45</title>
<path fill="none" stroke="#5692d8" stroke-width="2" stroke-dasharray="5,2" d="M340.569,-900C340.569,-900 293.376,-900 293.376,-900 287.376,-900 281.376,-894 281.376,-888 281.376,-888 281.376,-876 281.376,-876 281.376,-870 287.376,-864 293.376,-864 293.376,-864 340.569,-864 340.569,-864 346.569,-864 352.569,-870 352.569,-876 352.569,-876 352.569,-888 352.569,-888 352.569,-894 346.569,-900 340.569,-900"/>
<text text-anchor="middle" x="316.973" y="-879" font-family="sans" font-size="10.00">build_bowtie</text>
</g>
<!-- 19&#45;&gt;45 -->
<g id="edge68" class="edge"><title>19&#45;&gt;45</title>
<path fill="none" stroke="grey" stroke-width="2" d="M438.588,-935.876C415.412,-925.8 386.021,-913.021 361.938,-902.55"/>
<polygon fill="grey" stroke="grey" stroke-width="2" points="363.222,-899.292 352.655,-898.514 360.431,-905.711 363.222,-899.292"/>
</g>
<!-- 46 -->
<g id="node47" class="node"><title>46</title>
<path fill="none" stroke="#56d863" stroke-width="2" stroke-dasharray="5,2" d="M482.805,-900C482.805,-900 383.141,-900 383.141,-900 377.141,-900 371.141,-894 371.141,-888 371.141,-888 371.141,-876 371.141,-876 371.141,-870 377.141,-864 383.141,-864 383.141,-864 482.805,-864 482.805,-864 488.805,-864 494.805,-870 494.805,-876 494.805,-876 494.805,-888 494.805,-888 494.805,-894 488.805,-900 482.805,-900"/>
<text text-anchor="middle" x="432.973" y="-884" font-family="sans" font-size="10.00">design_probes</text>
<text text-anchor="middle" x="432.973" y="-874" font-family="sans" font-size="10.00">chrom: NZ_CP072338.1</text>
</g>
<!-- 19&#45;&gt;46 -->
<g id="edge69" class="edge"><title>19&#45;&gt;46</title>
<path fill="none" stroke="grey" stroke-width="2" d="M466.849,-935.697C461.618,-927.559 455.273,-917.689 449.495,-908.701"/>
<polygon fill="grey" stroke="grey" stroke-width="2" points="452.32,-906.623 443.968,-900.104 446.432,-910.409 452.32,-906.623"/>
</g>
<!-- 47 -->
<g id="node48" class="node"><title>47</title>
<path fill="none" stroke="#56d863" stroke-width="2" stroke-dasharray="5,2" d="M663.805,-900C663.805,-900 564.141,-900 564.141,-900 558.141,-900 552.141,-894 552.141,-888 552.141,-888 552.141,-876 552.141,-876 552.141,-870 558.141,-864 564.141,-864 564.141,-864 663.805,-864 663.805,-864 669.805,-864 675.805,-870 675.805,-876 675.805,-876 675.805,-888 675.805,-888 675.805,-894 669.805,-900 663.805,-900"/>
<text text-anchor="middle" x="613.973" y="-884" font-family="sans" font-size="10.00">design_probes</text>
<text text-anchor="middle" x="613.973" y="-874" font-family="sans" font-size="10.00">chrom: NZ_CP072337.1</text>
</g>
<!-- 19&#45;&gt;47 -->
<g id="edge70" class="edge"><title>19&#45;&gt;47</title>
<path fill="none" stroke="grey" stroke-width="2" d="M511.242,-935.876C529.436,-926.512 552.163,-914.814 571.613,-904.803"/>
<polygon fill="grey" stroke="grey" stroke-width="2" points="573.286,-907.878 580.575,-900.19 570.082,-901.654 573.286,-907.878"/>
</g>
<!-- 20&#45;&gt;12 -->
<g id="edge26" class="edge"><title>20&#45;&gt;12</title>
<path fill="none" stroke="grey" stroke-width="2" d="M840.077,-359.876C818.341,-350.307 791.069,-338.3 768.008,-328.148"/>
<polygon fill="grey" stroke="grey" stroke-width="2" points="769.305,-324.894 758.742,-324.068 766.484,-331.301 769.305,-324.894"/>
</g>
<!-- 21&#45;&gt;12 -->
<g id="edge27" class="edge"><title>21&#45;&gt;12</title>
<path fill="none" stroke="grey" stroke-width="2" d="M719.973,-359.697C719.973,-351.983 719.973,-342.712 719.973,-334.112"/>
<polygon fill="grey" stroke="grey" stroke-width="2" points="723.473,-334.104 719.973,-324.104 716.473,-334.104 723.473,-334.104"/>
</g>
<!-- 22 -->
<g id="node23" class="node"><title>22</title>
<path fill="none" stroke="#56d8d0" stroke-width="2" stroke-dasharray="5,2" d="M234.125,-468C234.125,-468 175.82,-468 175.82,-468 169.82,-468 163.82,-462 163.82,-456 163.82,-456 163.82,-444 163.82,-444 163.82,-438 169.82,-432 175.82,-432 175.82,-432 234.125,-432 234.125,-432 240.125,-432 246.125,-438 246.125,-444 246.125,-444 246.125,-456 246.125,-456 246.125,-462 240.125,-468 234.125,-468"/>
<text text-anchor="middle" x="204.973" y="-447" font-family="sans" font-size="10.00">filter_n_probes</text>
</g>
<!-- 22&#45;&gt;13 -->
<g id="edge28" class="edge"><title>22&#45;&gt;13</title>
<path fill="none" stroke="grey" stroke-width="2" d="M204.973,-431.697C204.973,-423.983 204.973,-414.712 204.973,-406.112"/>
<polygon fill="grey" stroke="grey" stroke-width="2" points="208.473,-406.104 204.973,-396.104 201.473,-406.104 208.473,-406.104"/>
</g>
<!-- 22&#45;&gt;14 -->
<g id="edge29" class="edge"><title>22&#45;&gt;14</title>
<path fill="none" stroke="grey" stroke-width="2" d="M224.501,-431.697C234.354,-422.965 246.458,-412.24 257.169,-402.75"/>
<polygon fill="grey" stroke="grey" stroke-width="2" points="259.506,-405.356 264.669,-396.104 254.863,-400.117 259.506,-405.356"/>
</g>
<!-- 23&#45;&gt;14 -->
<g id="edge30" class="edge"><title>23&#45;&gt;14</title>
<path fill="none" stroke="grey" stroke-width="2" d="M456.136,-438.379C423.477,-428.951 374.914,-414.312 324.691,-396.103"/>
<polygon fill="grey" stroke="grey" stroke-width="2" points="325.891,-392.815 315.297,-392.662 323.483,-399.388 325.891,-392.815"/>
</g>
<!-- 23&#45;&gt;16 -->
<g id="edge33" class="edge"><title>23&#45;&gt;16</title>
<path fill="none" stroke="grey" stroke-width="2" d="M481.119,-431.697C474.948,-423.389 467.436,-413.277 460.649,-404.141"/>
<polygon fill="grey" stroke="grey" stroke-width="2" points="463.452,-402.045 454.679,-396.104 457.832,-406.219 463.452,-402.045"/>
</g>
<!-- 23&#45;&gt;18 -->
<g id="edge36" class="edge"><title>23&#45;&gt;18</title>
<path fill="none" stroke="grey" stroke-width="2" d="M501.141,-431.697C504.407,-423.813 508.347,-414.304 511.975,-405.546"/>
<polygon fill="grey" stroke="grey" stroke-width="2" points="515.293,-406.683 515.887,-396.104 508.826,-404.003 515.293,-406.683"/>
</g>
<!-- 24 -->
<g id="node25" class="node"><title>24</title>
<path fill="none" stroke="#56d8d0" stroke-width="2" stroke-dasharray="5,2" d="M404.125,-468C404.125,-468 345.82,-468 345.82,-468 339.82,-468 333.82,-462 333.82,-456 333.82,-456 333.82,-444 333.82,-444 333.82,-438 339.82,-432 345.82,-432 345.82,-432 404.125,-432 404.125,-432 410.125,-432 416.125,-438 416.125,-444 416.125,-444 416.125,-456 416.125,-456 416.125,-462 410.125,-468 404.125,-468"/>
<text text-anchor="middle" x="374.973" y="-447" font-family="sans" font-size="10.00">filter_n_probes</text>
</g>
<!-- 24&#45;&gt;15 -->
<g id="edge31" class="edge"><title>24&#45;&gt;15</title>
<path fill="none" stroke="grey" stroke-width="2" d="M372.006,-431.697C370.684,-423.983 369.095,-414.712 367.621,-406.112"/>
<polygon fill="grey" stroke="grey" stroke-width="2" points="371.044,-405.369 365.905,-396.104 364.145,-406.552 371.044,-405.369"/>
</g>
<!-- 24&#45;&gt;16 -->
<g id="edge32" class="edge"><title>24&#45;&gt;16</title>
<path fill="none" stroke="grey" stroke-width="2" d="M391.534,-431.697C399.648,-423.22 409.56,-412.864 418.444,-403.583"/>
<polygon fill="grey" stroke="grey" stroke-width="2" points="421.215,-405.749 425.601,-396.104 416.158,-400.908 421.215,-405.749"/>
</g>
<!-- 25 -->
<g id="node26" class="node"><title>25</title>
<path fill="none" stroke="#56d8d0" stroke-width="2" stroke-dasharray="5,2" d="M631.125,-468C631.125,-468 572.82,-468 572.82,-468 566.82,-468 560.82,-462 560.82,-456 560.82,-456 560.82,-444 560.82,-444 560.82,-438 566.82,-432 572.82,-432 572.82,-432 631.125,-432 631.125,-432 637.125,-432 643.125,-438 643.125,-444 643.125,-444 643.125,-456 643.125,-456 643.125,-462 637.125,-468 631.125,-468"/>
<text text-anchor="middle" x="601.973" y="-447" font-family="sans" font-size="10.00">filter_n_probes</text>
</g>
<!-- 25&#45;&gt;17 -->
<g id="edge34" class="edge"><title>25&#45;&gt;17</title>
<path fill="none" stroke="grey" stroke-width="2" d="M601.973,-431.697C601.973,-423.983 601.973,-414.712 601.973,-406.112"/>
<polygon fill="grey" stroke="grey" stroke-width="2" points="605.473,-406.104 601.973,-396.104 598.473,-406.104 605.473,-406.104"/>
</g>
<!-- 25&#45;&gt;18 -->
<g id="edge35" class="edge"><title>25&#45;&gt;18</title>
<path fill="none" stroke="grey" stroke-width="2" d="M582.445,-431.697C572.591,-422.965 560.487,-412.24 549.777,-402.75"/>
<polygon fill="grey" stroke="grey" stroke-width="2" points="552.082,-400.117 542.276,-396.104 547.44,-405.356 552.082,-400.117"/>
</g>
<!-- 26 -->
<g id="node27" class="node"><title>26</title>
<path fill="none" stroke="#566bd8" stroke-width="2" stroke-dasharray="5,2" d="M217.973,-540C217.973,-540 187.973,-540 187.973,-540 181.973,-540 175.973,-534 175.973,-528 175.973,-528 175.973,-516 175.973,-516 175.973,-510 181.973,-504 187.973,-504 187.973,-504 217.973,-504 217.973,-504 223.973,-504 229.973,-510 229.973,-516 229.973,-516 229.973,-528 229.973,-528 229.973,-534 223.973,-540 217.973,-540"/>
<text text-anchor="middle" x="202.973" y="-519" font-family="sans" font-size="10.00">score</text>
</g>
<!-- 26&#45;&gt;22 -->
<g id="edge39" class="edge"><title>26&#45;&gt;22</title>
<path fill="none" stroke="grey" stroke-width="2" d="M203.467,-503.697C203.687,-495.983 203.952,-486.712 204.198,-478.112"/>
<polygon fill="grey" stroke="grey" stroke-width="2" points="207.697,-478.2 204.484,-468.104 200.7,-478 207.697,-478.2"/>
</g>
<!-- 27 -->
<g id="node28" class="node"><title>27</title>
<path fill="none" stroke="#566bd8" stroke-width="2" stroke-dasharray="5,2" d="M389.973,-540C389.973,-540 359.973,-540 359.973,-540 353.973,-540 347.973,-534 347.973,-528 347.973,-528 347.973,-516 347.973,-516 347.973,-510 353.973,-504 359.973,-504 359.973,-504 389.973,-504 389.973,-504 395.973,-504 401.973,-510 401.973,-516 401.973,-516 401.973,-528 401.973,-528 401.973,-534 395.973,-540 389.973,-540"/>
<text text-anchor="middle" x="374.973" y="-519" font-family="sans" font-size="10.00">score</text>
</g>
<!-- 27&#45;&gt;24 -->
<g id="edge41" class="edge"><title>27&#45;&gt;24</title>
<path fill="none" stroke="grey" stroke-width="2" d="M374.973,-503.697C374.973,-495.983 374.973,-486.712 374.973,-478.112"/>
<polygon fill="grey" stroke="grey" stroke-width="2" points="378.473,-478.104 374.973,-468.104 371.473,-478.104 378.473,-478.104"/>
</g>
<!-- 28 -->
<g id="node29" class="node"><title>28</title>
<path fill="none" stroke="#566bd8" stroke-width="2" stroke-dasharray="5,2" d="M620.973,-540C620.973,-540 590.973,-540 590.973,-540 584.973,-540 578.973,-534 578.973,-528 578.973,-528 578.973,-516 578.973,-516 578.973,-510 584.973,-504 590.973,-504 590.973,-504 620.973,-504 620.973,-504 626.973,-504 632.973,-510 632.973,-516 632.973,-516 632.973,-528 632.973,-528 632.973,-534 626.973,-540 620.973,-540"/>
<text text-anchor="middle" x="605.973" y="-519" font-family="sans" font-size="10.00">score</text>
</g>
<!-- 28&#45;&gt;25 -->
<g id="edge42" class="edge"><title>28&#45;&gt;25</title>
<path fill="none" stroke="grey" stroke-width="2" d="M604.984,-503.697C604.543,-495.983 604.013,-486.712 603.522,-478.112"/>
<polygon fill="grey" stroke="grey" stroke-width="2" points="607.015,-477.888 602.95,-468.104 600.026,-478.288 607.015,-477.888"/>
</g>
<!-- 29 -->
<g id="node30" class="node"><title>29</title>
<path fill="none" stroke="#afd856" stroke-width="2" stroke-dasharray="5,2" d="M223.517,-612C223.517,-612 166.429,-612 166.429,-612 160.429,-612 154.429,-606 154.429,-600 154.429,-600 154.429,-588 154.429,-588 154.429,-582 160.429,-576 166.429,-576 166.429,-576 223.517,-576 223.517,-576 229.517,-576 235.517,-582 235.517,-588 235.517,-588 235.517,-600 235.517,-600 235.517,-606 229.517,-612 223.517,-612"/>
<text text-anchor="middle" x="194.973" y="-591" font-family="sans" font-size="10.00">predict_duplex</text>
</g>
<!-- 29&#45;&gt;26 -->
<g id="edge43" class="edge"><title>29&#45;&gt;26</title>
<path fill="none" stroke="grey" stroke-width="2" d="M196.95,-575.697C197.832,-567.983 198.891,-558.712 199.874,-550.112"/>
<polygon fill="grey" stroke="grey" stroke-width="2" points="203.36,-550.437 201.018,-540.104 196.405,-549.642 203.36,-550.437"/>
</g>
<!-- 30 -->
<g id="node31" class="node"><title>30</title>
<path fill="none" stroke="#afd856" stroke-width="2" stroke-dasharray="5,2" d="M403.517,-612C403.517,-612 346.429,-612 346.429,-612 340.429,-612 334.429,-606 334.429,-600 334.429,-600 334.429,-588 334.429,-588 334.429,-582 340.429,-576 346.429,-576 346.429,-576 403.517,-576 403.517,-576 409.517,-576 415.517,-582 415.517,-588 415.517,-588 415.517,-600 415.517,-600 415.517,-606 409.517,-612 403.517,-612"/>
<text text-anchor="middle" x="374.973" y="-591" font-family="sans" font-size="10.00">predict_duplex</text>
</g>
<!-- 30&#45;&gt;27 -->
<g id="edge44" class="edge"><title>30&#45;&gt;27</title>
<path fill="none" stroke="grey" stroke-width="2" d="M374.973,-575.697C374.973,-567.983 374.973,-558.712 374.973,-550.112"/>
<polygon fill="grey" stroke="grey" stroke-width="2" points="378.473,-550.104 374.973,-540.104 371.473,-550.104 378.473,-550.104"/>
</g>
<!-- 31 -->
<g id="node32" class="node"><title>31</title>
<path fill="none" stroke="#afd856" stroke-width="2" stroke-dasharray="5,2" d="M635.517,-612C635.517,-612 578.429,-612 578.429,-612 572.429,-612 566.429,-606 566.429,-600 566.429,-600 566.429,-588 566.429,-588 566.429,-582 572.429,-576 578.429,-576 578.429,-576 635.517,-576 635.517,-576 641.517,-576 647.517,-582 647.517,-588 647.517,-588 647.517,-600 647.517,-600 647.517,-606 641.517,-612 635.517,-612"/>
<text text-anchor="middle" x="606.973" y="-591" font-family="sans" font-size="10.00">predict_duplex</text>
</g>
<!-- 31&#45;&gt;28 -->
<g id="edge45" class="edge"><title>31&#45;&gt;28</title>
<path fill="none" stroke="grey" stroke-width="2" d="M606.725,-575.697C606.615,-567.983 606.483,-558.712 606.36,-550.112"/>
<polygon fill="grey" stroke="grey" stroke-width="2" points="609.86,-550.053 606.217,-540.104 602.86,-550.153 609.86,-550.053"/>
</g>
<!-- 32 -->
<g id="node33" class="node"><title>32</title>
<path fill="none" stroke="#d6d856" stroke-width="2" stroke-dasharray="5,2" d="M222.729,-684C222.729,-684 163.216,-684 163.216,-684 157.216,-684 151.216,-678 151.216,-672 151.216,-672 151.216,-660 151.216,-660 151.216,-654 157.216,-648 163.216,-648 163.216,-648 222.729,-648 222.729,-648 228.729,-648 234.729,-654 234.729,-660 234.729,-660 234.729,-672 234.729,-672 234.729,-678 228.729,-684 222.729,-684"/>
<text text-anchor="middle" x="192.973" y="-663" font-family="sans" font-size="10.00">parse_pairwise</text>
</g>
<!-- 32&#45;&gt;29 -->
<g id="edge46" class="edge"><title>32&#45;&gt;29</title>
<path fill="none" stroke="grey" stroke-width="2" d="M193.467,-647.697C193.687,-639.983 193.952,-630.712 194.198,-622.112"/>
<polygon fill="grey" stroke="grey" stroke-width="2" points="197.697,-622.2 194.484,-612.104 190.7,-622 197.697,-622.2"/>
</g>
<!-- 33 -->
<g id="node34" class="node"><title>33</title>
<path fill="none" stroke="#d6d856" stroke-width="2" stroke-dasharray="5,2" d="M404.729,-684C404.729,-684 345.216,-684 345.216,-684 339.216,-684 333.216,-678 333.216,-672 333.216,-672 333.216,-660 333.216,-660 333.216,-654 339.216,-648 345.216,-648 345.216,-648 404.729,-648 404.729,-648 410.729,-648 416.729,-654 416.729,-660 416.729,-660 416.729,-672 416.729,-672 416.729,-678 410.729,-684 404.729,-684"/>
<text text-anchor="middle" x="374.973" y="-663" font-family="sans" font-size="10.00">parse_pairwise</text>
</g>
<!-- 33&#45;&gt;30 -->
<g id="edge47" class="edge"><title>33&#45;&gt;30</title>
<path fill="none" stroke="grey" stroke-width="2" d="M374.973,-647.697C374.973,-639.983 374.973,-630.712 374.973,-622.112"/>
<polygon fill="grey" stroke="grey" stroke-width="2" points="378.473,-622.104 374.973,-612.104 371.473,-622.104 378.473,-622.104"/>
</g>
<!-- 34 -->
<g id="node35" class="node"><title>34</title>
<path fill="none" stroke="#d6d856" stroke-width="2" stroke-dasharray="5,2" d="M645.729,-684C645.729,-684 586.216,-684 586.216,-684 580.216,-684 574.216,-678 574.216,-672 574.216,-672 574.216,-660 574.216,-660 574.216,-654 580.216,-648 586.216,-648 586.216,-648 645.729,-648 645.729,-648 651.729,-648 657.729,-654 657.729,-660 657.729,-660 657.729,-672 657.729,-672 657.729,-678 651.729,-684 645.729,-684"/>
<text text-anchor="middle" x="615.973" y="-663" font-family="sans" font-size="10.00">parse_pairwise</text>
</g>
<!-- 34&#45;&gt;31 -->
<g id="edge48" class="edge"><title>34&#45;&gt;31</title>
<path fill="none" stroke="grey" stroke-width="2" d="M613.748,-647.697C612.756,-639.983 611.564,-630.712 610.459,-622.112"/>
<polygon fill="grey" stroke="grey" stroke-width="2" points="613.919,-621.576 609.172,-612.104 606.976,-622.469 613.919,-621.576"/>
</g>
<!-- 35 -->
<g id="node36" class="node"><title>35</title>
<path fill="none" stroke="#d8b456" stroke-width="2" stroke-dasharray="5,2" d="M226.507,-756C226.507,-756 159.438,-756 159.438,-756 153.438,-756 147.438,-750 147.438,-744 147.438,-744 147.438,-732 147.438,-732 147.438,-726 153.438,-720 159.438,-720 159.438,-720 226.507,-720 226.507,-720 232.507,-720 238.507,-726 238.507,-732 238.507,-732 238.507,-744 238.507,-744 238.507,-750 232.507,-756 226.507,-756"/>
<text text-anchor="middle" x="192.973" y="-735" font-family="sans" font-size="10.00">sam_to_pairwise</text>
</g>
<!-- 35&#45;&gt;32 -->
<g id="edge49" class="edge"><title>35&#45;&gt;32</title>
<path fill="none" stroke="grey" stroke-width="2" d="M192.973,-719.697C192.973,-711.983 192.973,-702.712 192.973,-694.112"/>
<polygon fill="grey" stroke="grey" stroke-width="2" points="196.473,-694.104 192.973,-684.104 189.473,-694.104 196.473,-694.104"/>
</g>
<!-- 36 -->
<g id="node37" class="node"><title>36</title>
<path fill="none" stroke="#d8cb56" stroke-width="2" stroke-dasharray="5,2" d="M117.918,-756C117.918,-756 12.0273,-756 12.0273,-756 6.02733,-756 0.0273322,-750 0.0273322,-744 0.0273322,-744 0.0273322,-732 0.0273322,-732 0.0273322,-726 6.02733,-720 12.0273,-720 12.0273,-720 117.918,-720 117.918,-720 123.918,-720 129.918,-726 129.918,-732 129.918,-732 129.918,-744 129.918,-744 129.918,-750 123.918,-756 117.918,-756"/>
<text text-anchor="middle" x="64.9727" y="-735" font-family="sans" font-size="10.00">extract_alignment_scores</text>
</g>
<!-- 36&#45;&gt;32 -->
<g id="edge50" class="edge"><title>36&#45;&gt;32</title>
<path fill="none" stroke="grey" stroke-width="2" d="M96.285,-719.876C113.176,-710.639 134.219,-699.131 152.357,-689.212"/>
<polygon fill="grey" stroke="grey" stroke-width="2" points="154.446,-692.059 161.54,-684.19 151.087,-685.917 154.446,-692.059"/>
</g>
<!-- 37 -->
<g id="node38" class="node"><title>37</title>
<path fill="none" stroke="#d8b456" stroke-width="2" stroke-dasharray="5,2" d="M335.507,-756C335.507,-756 268.438,-756 268.438,-756 262.438,-756 256.438,-750 256.438,-744 256.438,-744 256.438,-732 256.438,-732 256.438,-726 262.438,-720 268.438,-720 268.438,-720 335.507,-720 335.507,-720 341.507,-720 347.507,-726 347.507,-732 347.507,-732 347.507,-744 347.507,-744 347.507,-750 341.507,-756 335.507,-756"/>
<text text-anchor="middle" x="301.973" y="-735" font-family="sans" font-size="10.00">sam_to_pairwise</text>
</g>
<!-- 37&#45;&gt;33 -->
<g id="edge51" class="edge"><title>37&#45;&gt;33</title>
<path fill="none" stroke="grey" stroke-width="2" d="M320.018,-719.697C329.035,-711.05 340.091,-700.449 349.916,-691.027"/>
<polygon fill="grey" stroke="grey" stroke-width="2" points="352.34,-693.552 357.135,-684.104 347.495,-688.499 352.34,-693.552"/>
</g>
<!-- 38 -->
<g id="node39" class="node"><title>38</title>
<path fill="none" stroke="#d8cb56" stroke-width="2" stroke-dasharray="5,2" d="M482.918,-756C482.918,-756 377.027,-756 377.027,-756 371.027,-756 365.027,-750 365.027,-744 365.027,-744 365.027,-732 365.027,-732 365.027,-726 371.027,-720 377.027,-720 377.027,-720 482.918,-720 482.918,-720 488.918,-720 494.918,-726 494.918,-732 494.918,-732 494.918,-744 494.918,-744 494.918,-750 488.918,-756 482.918,-756"/>
<text text-anchor="middle" x="429.973" y="-735" font-family="sans" font-size="10.00">extract_alignment_scores</text>
</g>
<!-- 38&#45;&gt;33 -->
<g id="edge52" class="edge"><title>38&#45;&gt;33</title>
<path fill="none" stroke="grey" stroke-width="2" d="M416.377,-719.697C409.85,-711.389 401.905,-701.277 394.726,-692.141"/>
<polygon fill="grey" stroke="grey" stroke-width="2" points="397.342,-689.805 388.412,-684.104 391.838,-694.13 397.342,-689.805"/>
</g>
<!-- 39 -->
<g id="node40" class="node"><title>39</title>
<path fill="none" stroke="#d8b456" stroke-width="2" stroke-dasharray="5,2" d="M777.507,-756C777.507,-756 710.438,-756 710.438,-756 704.438,-756 698.438,-750 698.438,-744 698.438,-744 698.438,-732 698.438,-732 698.438,-726 704.438,-720 710.438,-720 710.438,-720 777.507,-720 777.507,-720 783.507,-720 789.507,-726 789.507,-732 789.507,-732 789.507,-744 789.507,-744 789.507,-750 783.507,-756 777.507,-756"/>
<text text-anchor="middle" x="743.973" y="-735" font-family="sans" font-size="10.00">sam_to_pairwise</text>
</g>
<!-- 39&#45;&gt;34 -->
<g id="edge53" class="edge"><title>39&#45;&gt;34</title>
<path fill="none" stroke="grey" stroke-width="2" d="M712.66,-719.876C695.769,-710.639 674.726,-699.131 656.588,-689.212"/>
<polygon fill="grey" stroke="grey" stroke-width="2" points="657.858,-685.917 647.405,-684.19 654.5,-692.059 657.858,-685.917"/>
</g>
<!-- 40 -->
<g id="node41" class="node"><title>40</title>
<path fill="none" stroke="#d8cb56" stroke-width="2" stroke-dasharray="5,2" d="M668.918,-756C668.918,-756 563.027,-756 563.027,-756 557.027,-756 551.027,-750 551.027,-744 551.027,-744 551.027,-732 551.027,-732 551.027,-726 557.027,-720 563.027,-720 563.027,-720 668.918,-720 668.918,-720 674.918,-720 680.918,-726 680.918,-732 680.918,-732 680.918,-744 680.918,-744 680.918,-750 674.918,-756 668.918,-756"/>
<text text-anchor="middle" x="615.973" y="-735" font-family="sans" font-size="10.00">extract_alignment_scores</text>
</g>
<!-- 40&#45;&gt;34 -->
<g id="edge54" class="edge"><title>40&#45;&gt;34</title>
<path fill="none" stroke="grey" stroke-width="2" d="M615.973,-719.697C615.973,-711.983 615.973,-702.712 615.973,-694.112"/>
<polygon fill="grey" stroke="grey" stroke-width="2" points="619.473,-694.104 615.973,-684.104 612.473,-694.104 619.473,-694.104"/>
</g>
<!-- 41 -->
<g id="node42" class="node"><title>41</title>
<path fill="none" stroke="#56d8a9" stroke-width="2" stroke-dasharray="5,2" d="M219.739,-828C219.739,-828 170.207,-828 170.207,-828 164.207,-828 158.207,-822 158.207,-816 158.207,-816 158.207,-804 158.207,-804 158.207,-798 164.207,-792 170.207,-792 170.207,-792 219.739,-792 219.739,-792 225.739,-792 231.739,-798 231.739,-804 231.739,-804 231.739,-816 231.739,-816 231.739,-822 225.739,-828 219.739,-828"/>
<text text-anchor="middle" x="194.973" y="-807" font-family="sans" font-size="10.00">align_probes</text>
</g>
<!-- 41&#45;&gt;35 -->
<g id="edge55" class="edge"><title>41&#45;&gt;35</title>
<path fill="none" stroke="grey" stroke-width="2" d="M194.478,-791.697C194.258,-783.983 193.993,-774.712 193.747,-766.112"/>
<polygon fill="grey" stroke="grey" stroke-width="2" points="197.246,-766 193.461,-756.104 190.248,-766.2 197.246,-766"/>
</g>
<!-- 41&#45;&gt;36 -->
<g id="edge56" class="edge"><title>41&#45;&gt;36</title>
<path fill="none" stroke="grey" stroke-width="2" d="M163.171,-791.876C145.859,-782.554 124.252,-770.919 105.716,-760.939"/>
<polygon fill="grey" stroke="grey" stroke-width="2" points="107.361,-757.849 96.8965,-756.19 104.042,-764.012 107.361,-757.849"/>
</g>
<!-- 42 -->
<g id="node43" class="node"><title>42</title>
<path fill="none" stroke="#56d8a9" stroke-width="2" stroke-dasharray="5,2" d="M398.739,-828C398.739,-828 349.207,-828 349.207,-828 343.207,-828 337.207,-822 337.207,-816 337.207,-816 337.207,-804 337.207,-804 337.207,-798 343.207,-792 349.207,-792 349.207,-792 398.739,-792 398.739,-792 404.739,-792 410.739,-798 410.739,-804 410.739,-804 410.739,-816 410.739,-816 410.739,-822 404.739,-828 398.739,-828"/>
<text text-anchor="middle" x="373.973" y="-807" font-family="sans" font-size="10.00">align_probes</text>
</g>
<!-- 42&#45;&gt;37 -->
<g id="edge57" class="edge"><title>42&#45;&gt;37</title>
<path fill="none" stroke="grey" stroke-width="2" d="M356.175,-791.697C347.369,-783.135 336.591,-772.656 326.972,-763.304"/>
<polygon fill="grey" stroke="grey" stroke-width="2" points="329.175,-760.566 319.566,-756.104 324.296,-765.585 329.175,-760.566"/>
</g>
<!-- 42&#45;&gt;38 -->
<g id="edge58" class="edge"><title>42&#45;&gt;38</title>
<path fill="none" stroke="grey" stroke-width="2" d="M387.815,-791.697C394.461,-783.389 402.551,-773.277 409.86,-764.141"/>
<polygon fill="grey" stroke="grey" stroke-width="2" points="412.775,-766.099 416.289,-756.104 407.309,-761.727 412.775,-766.099"/>
</g>
<!-- 43 -->
<g id="node44" class="node"><title>43</title>
<path fill="none" stroke="#56d8a9" stroke-width="2" stroke-dasharray="5,2" d="M639.739,-828C639.739,-828 590.207,-828 590.207,-828 584.207,-828 578.207,-822 578.207,-816 578.207,-816 578.207,-804 578.207,-804 578.207,-798 584.207,-792 590.207,-792 590.207,-792 639.739,-792 639.739,-792 645.739,-792 651.739,-798 651.739,-804 651.739,-804 651.739,-816 651.739,-816 651.739,-822 645.739,-828 639.739,-828"/>
<text text-anchor="middle" x="614.973" y="-807" font-family="sans" font-size="10.00">align_probes</text>
</g>
<!-- 43&#45;&gt;39 -->
<g id="edge59" class="edge"><title>43&#45;&gt;39</title>
<path fill="none" stroke="grey" stroke-width="2" d="M646.53,-791.876C663.631,-782.596 684.955,-771.025 703.291,-761.075"/>
<polygon fill="grey" stroke="grey" stroke-width="2" points="705.174,-764.035 712.294,-756.19 701.836,-757.883 705.174,-764.035"/>
</g>
<!-- 43&#45;&gt;40 -->
<g id="edge60" class="edge"><title>43&#45;&gt;40</title>
<path fill="none" stroke="grey" stroke-width="2" d="M615.22,-791.697C615.33,-783.983 615.462,-774.712 615.585,-766.112"/>
<polygon fill="grey" stroke="grey" stroke-width="2" points="619.085,-766.153 615.728,-756.104 612.086,-766.053 619.085,-766.153"/>
</g>
<!-- 44&#45;&gt;41 -->
<g id="edge61" class="edge"><title>44&#45;&gt;41</title>
<path fill="none" stroke="grey" stroke-width="2" d="M197.984,-863.697C197.543,-855.983 197.013,-846.712 196.522,-838.112"/>
<polygon fill="grey" stroke="grey" stroke-width="2" points="200.015,-837.888 195.95,-828.104 193.026,-838.288 200.015,-837.888"/>
</g>
<!-- 45&#45;&gt;41 -->
<g id="edge62" class="edge"><title>45&#45;&gt;41</title>
<path fill="none" stroke="grey" stroke-width="2" d="M287.128,-863.876C271.029,-854.639 250.972,-843.131 233.684,-833.212"/>
<polygon fill="grey" stroke="grey" stroke-width="2" points="235.347,-830.131 224.932,-828.19 231.864,-836.202 235.347,-830.131"/>
</g>
<!-- 45&#45;&gt;42 -->
<g id="edge64" class="edge"><title>45&#45;&gt;42</title>
<path fill="none" stroke="grey" stroke-width="2" d="M331.063,-863.697C337.896,-855.305 346.23,-845.07 353.728,-835.861"/>
<polygon fill="grey" stroke="grey" stroke-width="2" points="356.445,-838.069 360.045,-828.104 351.017,-833.649 356.445,-838.069"/>
</g>
<!-- 45&#45;&gt;43 -->
<g id="edge66" class="edge"><title>45&#45;&gt;43</title>
<path fill="none" stroke="grey" stroke-width="2" d="M352.665,-866.946C355.793,-865.888 358.926,-864.889 361.973,-864 432.707,-843.365 516.779,-827.398 567.984,-818.599"/>
<polygon fill="grey" stroke="grey" stroke-width="2" points="568.811,-822.008 578.084,-816.883 567.639,-815.107 568.811,-822.008"/>
</g>
<!-- 46&#45;&gt;42 -->
<g id="edge63" class="edge"><title>46&#45;&gt;42</title>
<path fill="none" stroke="grey" stroke-width="2" d="M418.388,-863.697C411.315,-855.305 402.689,-845.07 394.927,-835.861"/>
<polygon fill="grey" stroke="grey" stroke-width="2" points="397.51,-833.495 388.389,-828.104 392.158,-838.006 397.51,-833.495"/>
</g>
<!-- 47&#45;&gt;43 -->
<g id="edge65" class="edge"><title>47&#45;&gt;43</title>
<path fill="none" stroke="grey" stroke-width="2" d="M614.22,-863.697C614.33,-855.983 614.462,-846.712 614.585,-838.112"/>
<polygon fill="grey" stroke="grey" stroke-width="2" points="618.085,-838.153 614.728,-828.104 611.086,-838.053 618.085,-838.153"/>
</g>
</g>
</svg>
