<?xml version="1.0" encoding="UTF-8" standalone="no"?>
<!DOCTYPE svg PUBLIC "-//W3C//DTD SVG 1.1//EN"
 "http://www.w3.org/Graphics/SVG/1.1/DTD/svg11.dtd">
<!-- Generated by graphviz version 2.38.0 (20140413.2041)
 -->
<!-- Title: snakemake_dag Pages: 1 -->
<svg width="499pt" height="980pt"
 viewBox="0.00 0.00 499.29 980.00" xmlns="http://www.w3.org/2000/svg" xmlns:xlink="http://www.w3.org/1999/xlink">
<g id="graph0" class="graph" transform="scale(1 1) rotate(0) translate(4 976)">
<title>snakemake_dag</title>
<polygon fill="white" stroke="none" points="-4,4 -4,-976 495.293,-976 495.293,4 -4,4"/>
<!-- 0 -->
<g id="node1" class="node"><title>0</title>
<path fill="none" stroke="#d6d856" stroke-width="2" stroke-dasharray="5,2" d="M340.517,-36C340.517,-36 310.517,-36 310.517,-36 304.517,-36 298.517,-30 298.517,-24 298.517,-24 298.517,-12 298.517,-12 298.517,-6 304.517,-0 310.517,-0 310.517,-0 340.517,-0 340.517,-0 346.517,-0 352.517,-6 352.517,-12 352.517,-12 352.517,-24 352.517,-24 352.517,-30 346.517,-36 340.517,-36"/>
<text text-anchor="middle" x="325.517" y="-15" font-family="sans" font-size="10.00">all</text>
</g>
<!-- 1 -->
<g id="node2" class="node"><title>1</title>
<path fill="none" stroke="#afd856" stroke-width="2" stroke-dasharray="5,2" d="M340.517,-108C340.517,-108 310.517,-108 310.517,-108 304.517,-108 298.517,-102 298.517,-96 298.517,-96 298.517,-84 298.517,-84 298.517,-78 304.517,-72 310.517,-72 310.517,-72 340.517,-72 340.517,-72 346.517,-72 352.517,-78 352.517,-84 352.517,-84 352.517,-96 352.517,-96 352.517,-102 346.517,-108 340.517,-108"/>
<text text-anchor="middle" x="325.517" y="-87" font-family="sans" font-size="10.00">finish</text>
</g>
<!-- 1&#45;&gt;0 -->
<g id="edge1" class="edge"><title>1&#45;&gt;0</title>
<path fill="none" stroke="grey" stroke-width="2" d="M325.517,-71.6966C325.517,-63.9827 325.517,-54.7125 325.517,-46.1124"/>
<polygon fill="grey" stroke="grey" stroke-width="2" points="329.017,-46.1043 325.517,-36.1043 322.017,-46.1044 329.017,-46.1043"/>
</g>
<!-- 2 -->
<g id="node3" class="node"><title>2</title>
<path fill="none" stroke="#70d856" stroke-width="2" stroke-dasharray="5,2" d="M250.938,-180C250.938,-180 210.096,-180 210.096,-180 204.096,-180 198.096,-174 198.096,-168 198.096,-168 198.096,-156 198.096,-156 198.096,-150 204.096,-144 210.096,-144 210.096,-144 250.938,-144 250.938,-144 256.938,-144 262.938,-150 262.938,-156 262.938,-156 262.938,-168 262.938,-168 262.938,-174 256.938,-180 250.938,-180"/>
<text text-anchor="middle" x="230.517" y="-159" font-family="sans" font-size="10.00">zip_probes</text>
</g>
<!-- 2&#45;&gt;1 -->
<g id="edge2" class="edge"><title>2&#45;&gt;1</title>
<path fill="none" stroke="grey" stroke-width="2" d="M254,-143.697C266.08,-134.796 280.971,-123.823 294.033,-114.199"/>
<polygon fill="grey" stroke="grey" stroke-width="2" points="296.33,-116.854 302.304,-108.104 292.177,-111.219 296.33,-116.854"/>
</g>
<!-- 3 -->
<g id="node4" class="node"><title>3</title>
<path fill="none" stroke="#d87d56" stroke-width="2" stroke-dasharray="5,2" d="M352.84,-180C352.84,-180 298.195,-180 298.195,-180 292.195,-180 286.195,-174 286.195,-168 286.195,-168 286.195,-156 286.195,-156 286.195,-150 292.195,-144 298.195,-144 298.195,-144 352.84,-144 352.84,-144 358.84,-144 364.84,-150 364.84,-156 364.84,-156 364.84,-168 364.84,-168 364.84,-174 358.84,-180 352.84,-180"/>
<text text-anchor="middle" x="325.517" y="-159" font-family="sans" font-size="10.00">zip_refseq_db</text>
</g>
<!-- 3&#45;&gt;1 -->
<g id="edge3" class="edge"><title>3&#45;&gt;1</title>
<path fill="none" stroke="grey" stroke-width="2" d="M325.517,-143.697C325.517,-135.983 325.517,-126.712 325.517,-118.112"/>
<polygon fill="grey" stroke="grey" stroke-width="2" points="329.017,-118.104 325.517,-108.104 322.017,-118.104 329.017,-118.104"/>
</g>
<!-- 4 -->
<g id="node5" class="node"><title>4</title>
<path fill="none" stroke="#56d8c1" stroke-width="2" stroke-dasharray="5,2" d="M436.33,-180C436.33,-180 396.704,-180 396.704,-180 390.704,-180 384.704,-174 384.704,-168 384.704,-168 384.704,-156 384.704,-156 384.704,-150 390.704,-144 396.704,-144 396.704,-144 436.33,-144 436.33,-144 442.33,-144 448.33,-150 448.33,-156 448.33,-156 448.33,-168 448.33,-168 448.33,-174 442.33,-180 436.33,-180"/>
<text text-anchor="middle" x="416.517" y="-159" font-family="sans" font-size="10.00">zip_iso_db</text>
</g>
<!-- 4&#45;&gt;1 -->
<g id="edge4" class="edge"><title>4&#45;&gt;1</title>
<path fill="none" stroke="grey" stroke-width="2" d="M394.023,-143.697C382.562,-134.881 368.459,-124.032 356.034,-114.474"/>
<polygon fill="grey" stroke="grey" stroke-width="2" points="357.813,-111.427 347.753,-108.104 353.545,-116.976 357.813,-111.427"/>
</g>
<!-- 5 -->
<g id="node6" class="node"><title>5</title>
<path fill="none" stroke="#88d856" stroke-width="2" stroke-dasharray="5,2" d="M254.001,-252C254.001,-252 197.033,-252 197.033,-252 191.033,-252 185.033,-246 185.033,-240 185.033,-240 185.033,-228 185.033,-228 185.033,-222 191.033,-216 197.033,-216 197.033,-216 254.001,-216 254.001,-216 260.001,-216 266.001,-222 266.001,-228 266.001,-228 266.001,-240 266.001,-240 266.001,-246 260.001,-252 254.001,-252"/>
<text text-anchor="middle" x="225.517" y="-231" font-family="sans" font-size="10.00">merge_probes</text>
</g>
<!-- 5&#45;&gt;2 -->
<g id="edge5" class="edge"><title>5&#45;&gt;2</title>
<path fill="none" stroke="grey" stroke-width="2" d="M226.753,-215.697C227.304,-207.983 227.966,-198.712 228.58,-190.112"/>
<polygon fill="grey" stroke="grey" stroke-width="2" points="232.074,-190.328 229.295,-180.104 225.092,-189.83 232.074,-190.328"/>
</g>
<!-- 6 -->
<g id="node7" class="node"><title>6</title>
<path fill="none" stroke="#56a2d8" stroke-width="2" stroke-dasharray="5,2" d="M354.741,-252C354.741,-252 296.293,-252 296.293,-252 290.293,-252 284.293,-246 284.293,-240 284.293,-240 284.293,-228 284.293,-228 284.293,-222 290.293,-216 296.293,-216 296.293,-216 354.741,-216 354.741,-216 360.741,-216 366.741,-222 366.741,-228 366.741,-228 366.741,-240 366.741,-240 366.741,-246 360.741,-252 354.741,-252"/>
<text text-anchor="middle" x="325.517" y="-231" font-family="sans" font-size="10.00">gen_refseq_db</text>
</g>
<!-- 6&#45;&gt;3 -->
<g id="edge6" class="edge"><title>6&#45;&gt;3</title>
<path fill="none" stroke="grey" stroke-width="2" d="M325.517,-215.697C325.517,-207.983 325.517,-198.712 325.517,-190.112"/>
<polygon fill="grey" stroke="grey" stroke-width="2" points="329.017,-190.104 325.517,-180.104 322.017,-190.104 329.017,-190.104"/>
</g>
<!-- 7 -->
<g id="node8" class="node"><title>7</title>
<path fill="none" stroke="#bed856" stroke-width="2" stroke-dasharray="5,2" d="M440.232,-252C440.232,-252 396.803,-252 396.803,-252 390.803,-252 384.803,-246 384.803,-240 384.803,-240 384.803,-228 384.803,-228 384.803,-222 390.803,-216 396.803,-216 396.803,-216 440.232,-216 440.232,-216 446.232,-216 452.232,-222 452.232,-228 452.232,-228 452.232,-240 452.232,-240 452.232,-246 446.232,-252 440.232,-252"/>
<text text-anchor="middle" x="418.517" y="-231" font-family="sans" font-size="10.00">gen_iso_db</text>
</g>
<!-- 7&#45;&gt;4 -->
<g id="edge7" class="edge"><title>7&#45;&gt;4</title>
<path fill="none" stroke="grey" stroke-width="2" d="M418.023,-215.697C417.802,-207.983 417.537,-198.712 417.292,-190.112"/>
<polygon fill="grey" stroke="grey" stroke-width="2" points="420.79,-190 417.006,-180.104 413.793,-190.2 420.79,-190"/>
</g>
<!-- 8 -->
<g id="node9" class="node"><title>8</title>
<path fill="none" stroke="#d8cb56" stroke-width="2" stroke-dasharray="5,2" d="M286.001,-324C286.001,-324 239.033,-324 239.033,-324 233.033,-324 227.033,-318 227.033,-312 227.033,-312 227.033,-300 227.033,-300 227.033,-294 233.033,-288 239.033,-288 239.033,-288 286.001,-288 286.001,-288 292.001,-288 298.001,-294 298.001,-300 298.001,-300 298.001,-312 298.001,-312 298.001,-318 292.001,-324 286.001,-324"/>
<text text-anchor="middle" x="262.517" y="-303" font-family="sans" font-size="10.00">final_probes</text>
</g>
<!-- 8&#45;&gt;5 -->
<g id="edge8" class="edge"><title>8&#45;&gt;5</title>
<path fill="none" stroke="grey" stroke-width="2" d="M253.371,-287.697C249.114,-279.644 243.961,-269.894 239.251,-260.982"/>
<polygon fill="grey" stroke="grey" stroke-width="2" points="242.325,-259.31 234.558,-252.104 236.137,-262.581 242.325,-259.31"/>
</g>
<!-- 8&#45;&gt;6 -->
<g id="edge9" class="edge"><title>8&#45;&gt;6</title>
<path fill="none" stroke="grey" stroke-width="2" d="M278.09,-287.697C285.719,-279.22 295.04,-268.864 303.393,-259.583"/>
<polygon fill="grey" stroke="grey" stroke-width="2" points="306.035,-261.879 310.123,-252.104 300.832,-257.196 306.035,-261.879"/>
</g>
<!-- 8&#45;&gt;7 -->
<g id="edge11" class="edge"><title>8&#45;&gt;7</title>
<path fill="none" stroke="grey" stroke-width="2" d="M297.916,-289.116C320.851,-278.824 350.875,-265.352 375.228,-254.424"/>
<polygon fill="grey" stroke="grey" stroke-width="2" points="376.906,-257.508 384.597,-250.221 374.04,-251.121 376.906,-257.508"/>
</g>
<!-- 9 -->
<g id="node10" class="node"><title>9</title>
<path fill="none" stroke="#d8b456" stroke-width="2" stroke-dasharray="5,2" d="M349.212,-468C349.212,-468 315.822,-468 315.822,-468 309.822,-468 303.822,-462 303.822,-456 303.822,-456 303.822,-444 303.822,-444 303.822,-438 309.822,-432 315.822,-432 315.822,-432 349.212,-432 349.212,-432 355.212,-432 361.212,-438 361.212,-444 361.212,-444 361.212,-456 361.212,-456 361.212,-462 355.212,-468 349.212,-468"/>
<text text-anchor="middle" x="332.517" y="-447" font-family="sans" font-size="10.00">parse_gtf</text>
</g>
<!-- 9&#45;&gt;6 -->
<g id="edge10" class="edge"><title>9&#45;&gt;6</title>
<path fill="none" stroke="grey" stroke-width="2" d="M331.956,-431.849C330.745,-394.832 327.878,-307.181 326.413,-262.386"/>
<polygon fill="grey" stroke="grey" stroke-width="2" points="329.906,-262.113 326.081,-252.232 322.91,-262.342 329.906,-262.113"/>
</g>
<!-- 14 -->
<g id="node15" class="node"><title>14</title>
<path fill="none" stroke="#61d856" stroke-width="2" stroke-dasharray="5,2" d="M479.071,-396C479.071,-396 365.964,-396 365.964,-396 359.964,-396 353.964,-390 353.964,-384 353.964,-384 353.964,-372 353.964,-372 353.964,-366 359.964,-360 365.964,-360 365.964,-360 479.071,-360 479.071,-360 485.071,-360 491.071,-366 491.071,-372 491.071,-372 491.071,-384 491.071,-384 491.071,-390 485.071,-396 479.071,-396"/>
<text text-anchor="middle" x="422.517" y="-380" font-family="sans" font-size="10.00">flatten_isoforms</text>
<text text-anchor="middle" x="422.517" y="-370" font-family="sans" font-size="10.00">chrom_gtf: NZ_LT906445.1</text>
</g>
<!-- 9&#45;&gt;14 -->
<g id="edge20" class="edge"><title>9&#45;&gt;14</title>
<path fill="none" stroke="grey" stroke-width="2" d="M354.764,-431.697C366.099,-422.881 380.047,-412.032 392.336,-402.474"/>
<polygon fill="grey" stroke="grey" stroke-width="2" points="394.781,-405.007 400.526,-396.104 390.483,-399.481 394.781,-405.007"/>
</g>
<!-- 10 -->
<g id="node11" class="node"><title>10</title>
<path fill="none" stroke="#56d89a" stroke-width="2" stroke-dasharray="5,2" d="M468.535,-324C468.535,-324 372.5,-324 372.5,-324 366.5,-324 360.5,-318 360.5,-312 360.5,-312 360.5,-300 360.5,-300 360.5,-294 366.5,-288 372.5,-288 372.5,-288 468.535,-288 468.535,-288 474.535,-288 480.535,-294 480.535,-300 480.535,-300 480.535,-312 480.535,-312 480.535,-318 474.535,-324 468.535,-324"/>
<text text-anchor="middle" x="420.517" y="-303" font-family="sans" font-size="10.00">merge_flat_annotations</text>
</g>
<!-- 10&#45;&gt;7 -->
<g id="edge12" class="edge"><title>10&#45;&gt;7</title>
<path fill="none" stroke="grey" stroke-width="2" d="M420.023,-287.697C419.802,-279.983 419.537,-270.712 419.292,-262.112"/>
<polygon fill="grey" stroke="grey" stroke-width="2" points="422.79,-262 419.006,-252.104 415.793,-262.2 422.79,-262"/>
</g>
<!-- 11 -->
<g id="node12" class="node"><title>11</title>
<path fill="none" stroke="#567bd8" stroke-width="2" stroke-dasharray="5,2" d="M203.378,-396C203.378,-396 167.657,-396 167.657,-396 161.657,-396 155.657,-390 155.657,-384 155.657,-384 155.657,-372 155.657,-372 155.657,-366 161.657,-360 167.657,-360 167.657,-360 203.378,-360 203.378,-360 209.378,-360 215.378,-366 215.378,-372 215.378,-372 215.378,-384 215.378,-384 215.378,-390 209.378,-396 203.378,-396"/>
<text text-anchor="middle" x="185.517" y="-375" font-family="sans" font-size="10.00">calc_prob</text>
</g>
<!-- 11&#45;&gt;8 -->
<g id="edge13" class="edge"><title>11&#45;&gt;8</title>
<path fill="none" stroke="grey" stroke-width="2" d="M204.551,-359.697C214.062,-351.05 225.724,-340.449 236.087,-331.027"/>
<polygon fill="grey" stroke="grey" stroke-width="2" points="238.657,-333.421 243.702,-324.104 233.949,-328.241 238.657,-333.421"/>
</g>
<!-- 12 -->
<g id="node13" class="node"><title>12</title>
<path fill="none" stroke="#d86656" stroke-width="2" stroke-dasharray="5,2" d="M283.693,-396C283.693,-396 245.341,-396 245.341,-396 239.341,-396 233.341,-390 233.341,-384 233.341,-384 233.341,-372 233.341,-372 233.341,-366 239.341,-360 245.341,-360 245.341,-360 283.693,-360 283.693,-360 289.693,-360 295.693,-366 295.693,-372 295.693,-372 295.693,-384 295.693,-384 295.693,-390 289.693,-396 283.693,-396"/>
<text text-anchor="middle" x="264.517" y="-375" font-family="sans" font-size="10.00">max_kmer</text>
</g>
<!-- 12&#45;&gt;8 -->
<g id="edge14" class="edge"><title>12&#45;&gt;8</title>
<path fill="none" stroke="grey" stroke-width="2" d="M264.023,-359.697C263.802,-351.983 263.537,-342.712 263.292,-334.112"/>
<polygon fill="grey" stroke="grey" stroke-width="2" points="266.79,-334 263.006,-324.104 259.793,-334.2 266.79,-334"/>
</g>
<!-- 13 -->
<g id="node14" class="node"><title>13</title>
<path fill="none" stroke="#d8a456" stroke-width="2" stroke-dasharray="5,2" d="M277.731,-972C277.731,-972 219.303,-972 219.303,-972 213.303,-972 207.303,-966 207.303,-960 207.303,-960 207.303,-948 207.303,-948 207.303,-942 213.303,-936 219.303,-936 219.303,-936 277.731,-936 277.731,-936 283.731,-936 289.731,-942 289.731,-948 289.731,-948 289.731,-960 289.731,-960 289.731,-966 283.731,-972 277.731,-972"/>
<text text-anchor="middle" x="248.517" y="-951" font-family="sans" font-size="10.00">parse_genome</text>
</g>
<!-- 13&#45;&gt;9 -->
<g id="edge15" class="edge"><title>13&#45;&gt;9</title>
<path fill="none" stroke="grey" stroke-width="2" d="M267.159,-935.685C291.906,-910.72 332.517,-861.985 332.517,-811 332.517,-811 332.517,-811 332.517,-593 332.517,-552.996 332.517,-506.653 332.517,-478.08"/>
<polygon fill="grey" stroke="grey" stroke-width="2" points="336.017,-478.049 332.517,-468.049 329.017,-478.049 336.017,-478.049"/>
</g>
<!-- 16 -->
<g id="node17" class="node"><title>16</title>
<path fill="none" stroke="#56d873" stroke-width="2" stroke-dasharray="5,2" d="M292.496,-828C292.496,-828 240.538,-828 240.538,-828 234.538,-828 228.538,-822 228.538,-816 228.538,-816 228.538,-804 228.538,-804 228.538,-798 234.538,-792 240.538,-792 240.538,-792 292.496,-792 292.496,-792 298.496,-792 304.496,-798 304.496,-804 304.496,-804 304.496,-816 304.496,-816 304.496,-822 298.496,-828 292.496,-828"/>
<text text-anchor="middle" x="266.517" y="-807" font-family="sans" font-size="10.00">build_jellyfish</text>
</g>
<!-- 13&#45;&gt;16 -->
<g id="edge22" class="edge"><title>13&#45;&gt;16</title>
<path fill="none" stroke="grey" stroke-width="2" d="M253.542,-935.974C256.373,-925.658 259.697,-912.181 261.517,-900 264.585,-879.466 265.811,-856.012 266.282,-838.338"/>
<polygon fill="grey" stroke="grey" stroke-width="2" points="269.785,-838.226 266.488,-828.157 262.787,-838.084 269.785,-838.226"/>
</g>
<!-- 23 -->
<g id="node24" class="node"><title>23</title>
<path fill="none" stroke="#56c9d8" stroke-width="2" stroke-dasharray="5,2" d="M150.89,-900C150.89,-900 54.144,-900 54.144,-900 48.144,-900 42.144,-894 42.144,-888 42.144,-888 42.144,-876 42.144,-876 42.144,-870 48.144,-864 54.144,-864 54.144,-864 150.89,-864 150.89,-864 156.89,-864 162.89,-870 162.89,-876 162.89,-876 162.89,-888 162.89,-888 162.89,-894 156.89,-900 150.89,-900"/>
<text text-anchor="middle" x="102.517" y="-884" font-family="sans" font-size="10.00">design_probes</text>
<text text-anchor="middle" x="102.517" y="-874" font-family="sans" font-size="10.00">chrom: NZ_LT906445.1</text>
</g>
<!-- 13&#45;&gt;23 -->
<g id="edge31" class="edge"><title>13&#45;&gt;23</title>
<path fill="none" stroke="grey" stroke-width="2" d="M212.801,-935.876C193.02,-926.392 168.245,-914.513 147.191,-904.419"/>
<polygon fill="grey" stroke="grey" stroke-width="2" points="148.647,-901.236 138.117,-900.068 145.621,-907.548 148.647,-901.236"/>
</g>
<!-- 24 -->
<g id="node25" class="node"><title>24</title>
<path fill="none" stroke="#56d8a9" stroke-width="2" stroke-dasharray="5,2" d="M240.114,-900C240.114,-900 192.92,-900 192.92,-900 186.92,-900 180.92,-894 180.92,-888 180.92,-888 180.92,-876 180.92,-876 180.92,-870 186.92,-864 192.92,-864 192.92,-864 240.114,-864 240.114,-864 246.114,-864 252.114,-870 252.114,-876 252.114,-876 252.114,-888 252.114,-888 252.114,-894 246.114,-900 240.114,-900"/>
<text text-anchor="middle" x="216.517" y="-879" font-family="sans" font-size="10.00">build_bowtie</text>
</g>
<!-- 13&#45;&gt;24 -->
<g id="edge32" class="edge"><title>13&#45;&gt;24</title>
<path fill="none" stroke="grey" stroke-width="2" d="M240.607,-935.697C236.964,-927.728 232.563,-918.1 228.524,-909.264"/>
<polygon fill="grey" stroke="grey" stroke-width="2" points="231.677,-907.744 224.336,-900.104 225.311,-910.654 231.677,-907.744"/>
</g>
<!-- 14&#45;&gt;10 -->
<g id="edge16" class="edge"><title>14&#45;&gt;10</title>
<path fill="none" stroke="grey" stroke-width="2" d="M422.023,-359.697C421.802,-351.983 421.537,-342.712 421.292,-334.112"/>
<polygon fill="grey" stroke="grey" stroke-width="2" points="424.79,-334 421.006,-324.104 417.793,-334.2 424.79,-334"/>
</g>
<!-- 15 -->
<g id="node16" class="node"><title>15</title>
<path fill="none" stroke="#97d856" stroke-width="2" stroke-dasharray="5,2" d="M214.67,-468C214.67,-468 156.365,-468 156.365,-468 150.365,-468 144.365,-462 144.365,-456 144.365,-456 144.365,-444 144.365,-444 144.365,-438 150.365,-432 156.365,-432 156.365,-432 214.67,-432 214.67,-432 220.67,-432 226.67,-438 226.67,-444 226.67,-444 226.67,-456 226.67,-456 226.67,-462 220.67,-468 214.67,-468"/>
<text text-anchor="middle" x="185.517" y="-447" font-family="sans" font-size="10.00">filter_n_probes</text>
</g>
<!-- 15&#45;&gt;11 -->
<g id="edge17" class="edge"><title>15&#45;&gt;11</title>
<path fill="none" stroke="grey" stroke-width="2" d="M185.517,-431.697C185.517,-423.983 185.517,-414.712 185.517,-406.112"/>
<polygon fill="grey" stroke="grey" stroke-width="2" points="189.017,-406.104 185.517,-396.104 182.017,-406.104 189.017,-406.104"/>
</g>
<!-- 15&#45;&gt;12 -->
<g id="edge18" class="edge"><title>15&#45;&gt;12</title>
<path fill="none" stroke="grey" stroke-width="2" d="M205.045,-431.697C214.899,-422.965 227.003,-412.24 237.713,-402.75"/>
<polygon fill="grey" stroke="grey" stroke-width="2" points="240.05,-405.356 245.214,-396.104 235.408,-400.117 240.05,-405.356"/>
</g>
<!-- 16&#45;&gt;12 -->
<g id="edge19" class="edge"><title>16&#45;&gt;12</title>
<path fill="none" stroke="grey" stroke-width="2" d="M266.517,-791.951C266.517,-765.292 266.517,-712.115 266.517,-667 266.517,-667 266.517,-667 266.517,-521 266.517,-480.992 265.714,-434.65 265.125,-406.078"/>
<polygon fill="grey" stroke="grey" stroke-width="2" points="268.624,-405.972 264.912,-396.048 261.625,-406.12 268.624,-405.972"/>
</g>
<!-- 17 -->
<g id="node18" class="node"><title>17</title>
<path fill="none" stroke="#d85656" stroke-width="2" stroke-dasharray="5,2" d="M197.517,-540C197.517,-540 167.517,-540 167.517,-540 161.517,-540 155.517,-534 155.517,-528 155.517,-528 155.517,-516 155.517,-516 155.517,-510 161.517,-504 167.517,-504 167.517,-504 197.517,-504 197.517,-504 203.517,-504 209.517,-510 209.517,-516 209.517,-516 209.517,-528 209.517,-528 209.517,-534 203.517,-540 197.517,-540"/>
<text text-anchor="middle" x="182.517" y="-519" font-family="sans" font-size="10.00">score</text>
</g>
<!-- 17&#45;&gt;15 -->
<g id="edge21" class="edge"><title>17&#45;&gt;15</title>
<path fill="none" stroke="grey" stroke-width="2" d="M183.259,-503.697C183.589,-495.983 183.987,-486.712 184.355,-478.112"/>
<polygon fill="grey" stroke="grey" stroke-width="2" points="187.853,-478.245 184.784,-468.104 180.859,-477.945 187.853,-478.245"/>
</g>
<!-- 18 -->
<g id="node19" class="node"><title>18</title>
<path fill="none" stroke="#5692d8" stroke-width="2" stroke-dasharray="5,2" d="M204.061,-612C204.061,-612 146.973,-612 146.973,-612 140.973,-612 134.973,-606 134.973,-600 134.973,-600 134.973,-588 134.973,-588 134.973,-582 140.973,-576 146.973,-576 146.973,-576 204.061,-576 204.061,-576 210.061,-576 216.061,-582 216.061,-588 216.061,-588 216.061,-600 216.061,-600 216.061,-606 210.061,-612 204.061,-612"/>
<text text-anchor="middle" x="175.517" y="-591" font-family="sans" font-size="10.00">predict_duplex</text>
</g>
<!-- 18&#45;&gt;17 -->
<g id="edge23" class="edge"><title>18&#45;&gt;17</title>
<path fill="none" stroke="grey" stroke-width="2" d="M177.247,-575.697C178.019,-567.983 178.946,-558.712 179.806,-550.112"/>
<polygon fill="grey" stroke="grey" stroke-width="2" points="183.294,-550.403 180.807,-540.104 176.329,-549.706 183.294,-550.403"/>
</g>
<!-- 19 -->
<g id="node20" class="node"><title>19</title>
<path fill="none" stroke="#56d863" stroke-width="2" stroke-dasharray="5,2" d="M203.273,-684C203.273,-684 143.761,-684 143.761,-684 137.761,-684 131.761,-678 131.761,-672 131.761,-672 131.761,-660 131.761,-660 131.761,-654 137.761,-648 143.761,-648 143.761,-648 203.273,-648 203.273,-648 209.273,-648 215.273,-654 215.273,-660 215.273,-660 215.273,-672 215.273,-672 215.273,-678 209.273,-684 203.273,-684"/>
<text text-anchor="middle" x="173.517" y="-663" font-family="sans" font-size="10.00">parse_pairwise</text>
</g>
<!-- 19&#45;&gt;18 -->
<g id="edge24" class="edge"><title>19&#45;&gt;18</title>
<path fill="none" stroke="grey" stroke-width="2" d="M174.011,-647.697C174.232,-639.983 174.497,-630.712 174.742,-622.112"/>
<polygon fill="grey" stroke="grey" stroke-width="2" points="178.241,-622.2 175.028,-612.104 171.244,-622 178.241,-622.2"/>
</g>
<!-- 20 -->
<g id="node21" class="node"><title>20</title>
<path fill="none" stroke="#56d88a" stroke-width="2" stroke-dasharray="5,2" d="M79.0513,-756C79.0513,-756 11.9829,-756 11.9829,-756 5.9829,-756 -0.0170963,-750 -0.0170963,-744 -0.0170963,-744 -0.0170963,-732 -0.0170963,-732 -0.0170963,-726 5.9829,-720 11.9829,-720 11.9829,-720 79.0513,-720 79.0513,-720 85.0513,-720 91.0513,-726 91.0513,-732 91.0513,-732 91.0513,-744 91.0513,-744 91.0513,-750 85.0513,-756 79.0513,-756"/>
<text text-anchor="middle" x="45.5171" y="-735" font-family="sans" font-size="10.00">sam_to_pairwise</text>
</g>
<!-- 20&#45;&gt;19 -->
<g id="edge25" class="edge"><title>20&#45;&gt;19</title>
<path fill="none" stroke="grey" stroke-width="2" d="M76.8294,-719.876C93.7204,-710.639 114.764,-699.131 132.902,-689.212"/>
<polygon fill="grey" stroke="grey" stroke-width="2" points="134.99,-692.059 142.084,-684.19 131.631,-685.917 134.99,-692.059"/>
</g>
<!-- 21 -->
<g id="node22" class="node"><title>21</title>
<path fill="none" stroke="#56d8d0" stroke-width="2" stroke-dasharray="5,2" d="M226.462,-756C226.462,-756 120.572,-756 120.572,-756 114.572,-756 108.572,-750 108.572,-744 108.572,-744 108.572,-732 108.572,-732 108.572,-726 114.572,-720 120.572,-720 120.572,-720 226.462,-720 226.462,-720 232.462,-720 238.462,-726 238.462,-732 238.462,-732 238.462,-744 238.462,-744 238.462,-750 232.462,-756 226.462,-756"/>
<text text-anchor="middle" x="173.517" y="-735" font-family="sans" font-size="10.00">extract_alignment_scores</text>
</g>
<!-- 21&#45;&gt;19 -->
<g id="edge26" class="edge"><title>21&#45;&gt;19</title>
<path fill="none" stroke="grey" stroke-width="2" d="M173.517,-719.697C173.517,-711.983 173.517,-702.712 173.517,-694.112"/>
<polygon fill="grey" stroke="grey" stroke-width="2" points="177.017,-694.104 173.517,-684.104 170.017,-694.104 177.017,-694.104"/>
</g>
<!-- 22 -->
<g id="node23" class="node"><title>22</title>
<path fill="none" stroke="#d88d56" stroke-width="2" stroke-dasharray="5,2" d="M155.283,-828C155.283,-828 105.751,-828 105.751,-828 99.751,-828 93.751,-822 93.751,-816 93.751,-816 93.751,-804 93.751,-804 93.751,-798 99.751,-792 105.751,-792 105.751,-792 155.283,-792 155.283,-792 161.283,-792 167.283,-798 167.283,-804 167.283,-804 167.283,-816 167.283,-816 167.283,-822 161.283,-828 155.283,-828"/>
<text text-anchor="middle" x="130.517" y="-807" font-family="sans" font-size="10.00">align_probes</text>
</g>
<!-- 22&#45;&gt;20 -->
<g id="edge27" class="edge"><title>22&#45;&gt;20</title>
<path fill="none" stroke="grey" stroke-width="2" d="M109.506,-791.697C98.8008,-782.881 85.6274,-772.032 74.0215,-762.474"/>
<polygon fill="grey" stroke="grey" stroke-width="2" points="76.231,-759.76 66.2866,-756.104 71.781,-765.163 76.231,-759.76"/>
</g>
<!-- 22&#45;&gt;21 -->
<g id="edge28" class="edge"><title>22&#45;&gt;21</title>
<path fill="none" stroke="grey" stroke-width="2" d="M141.146,-791.697C146.145,-783.559 152.208,-773.689 157.729,-764.701"/>
<polygon fill="grey" stroke="grey" stroke-width="2" points="160.758,-766.457 163.01,-756.104 154.794,-762.793 160.758,-766.457"/>
</g>
<!-- 23&#45;&gt;22 -->
<g id="edge29" class="edge"><title>23&#45;&gt;22</title>
<path fill="none" stroke="grey" stroke-width="2" d="M109.438,-863.697C112.592,-855.813 116.395,-846.304 119.899,-837.546"/>
<polygon fill="grey" stroke="grey" stroke-width="2" points="123.211,-838.689 123.675,-828.104 116.712,-836.089 123.211,-838.689"/>
</g>
<!-- 24&#45;&gt;22 -->
<g id="edge30" class="edge"><title>24&#45;&gt;22</title>
<path fill="none" stroke="grey" stroke-width="2" d="M195.259,-863.697C184.428,-854.881 171.099,-844.032 159.357,-834.474"/>
<polygon fill="grey" stroke="grey" stroke-width="2" points="161.496,-831.703 151.531,-828.104 157.077,-837.132 161.496,-831.703"/>
</g>
</g>
</svg>
