<?xml version="1.0" encoding="UTF-8" standalone="no"?>
<!DOCTYPE svg PUBLIC "-//W3C//DTD SVG 1.1//EN"
 "http://www.w3.org/Graphics/SVG/1.1/DTD/svg11.dtd">
<!-- Generated by graphviz version 2.38.0 (20140413.2041)
 -->
<!-- Title: snakemake_dag Pages: 1 -->
<svg width="751pt" height="980pt"
 viewBox="0.00 0.00 751.36 980.00" xmlns="http://www.w3.org/2000/svg" xmlns:xlink="http://www.w3.org/1999/xlink">
<g id="graph0" class="graph" transform="scale(1 1) rotate(0) translate(4 976)">
<title>snakemake_dag</title>
<polygon fill="white" stroke="none" points="-4,4 -4,-976 747.36,-976 747.36,4 -4,4"/>
<!-- 0 -->
<g id="node1" class="node"><title>0</title>
<path fill="none" stroke="#d88d56" stroke-width="2" stroke-dasharray="5,2" d="M361.973,-36C361.973,-36 331.973,-36 331.973,-36 325.973,-36 319.973,-30 319.973,-24 319.973,-24 319.973,-12 319.973,-12 319.973,-6 325.973,-0 331.973,-0 331.973,-0 361.973,-0 361.973,-0 367.973,-0 373.973,-6 373.973,-12 373.973,-12 373.973,-24 373.973,-24 373.973,-30 367.973,-36 361.973,-36"/>
<text text-anchor="middle" x="346.973" y="-15" font-family="sans" font-size="10.00">all</text>
</g>
<!-- 1 -->
<g id="node2" class="node"><title>1</title>
<path fill="none" stroke="#97d856" stroke-width="2" stroke-dasharray="5,2" d="M361.973,-108C361.973,-108 331.973,-108 331.973,-108 325.973,-108 319.973,-102 319.973,-96 319.973,-96 319.973,-84 319.973,-84 319.973,-78 325.973,-72 331.973,-72 331.973,-72 361.973,-72 361.973,-72 367.973,-72 373.973,-78 373.973,-84 373.973,-84 373.973,-96 373.973,-96 373.973,-102 367.973,-108 361.973,-108"/>
<text text-anchor="middle" x="346.973" y="-87" font-family="sans" font-size="10.00">finish</text>
</g>
<!-- 1&#45;&gt;0 -->
<g id="edge1" class="edge"><title>1&#45;&gt;0</title>
<path fill="none" stroke="grey" stroke-width="2" d="M346.973,-71.6966C346.973,-63.9827 346.973,-54.7125 346.973,-46.1124"/>
<polygon fill="grey" stroke="grey" stroke-width="2" points="350.473,-46.1043 346.973,-36.1043 343.473,-46.1044 350.473,-46.1043"/>
</g>
<!-- 2 -->
<g id="node3" class="node"><title>2</title>
<path fill="none" stroke="#d8b456" stroke-width="2" stroke-dasharray="5,2" d="M280.394,-180C280.394,-180 239.552,-180 239.552,-180 233.552,-180 227.552,-174 227.552,-168 227.552,-168 227.552,-156 227.552,-156 227.552,-150 233.552,-144 239.552,-144 239.552,-144 280.394,-144 280.394,-144 286.394,-144 292.394,-150 292.394,-156 292.394,-156 292.394,-168 292.394,-168 292.394,-174 286.394,-180 280.394,-180"/>
<text text-anchor="middle" x="259.973" y="-159" font-family="sans" font-size="10.00">zip_probes</text>
</g>
<!-- 2&#45;&gt;1 -->
<g id="edge2" class="edge"><title>2&#45;&gt;1</title>
<path fill="none" stroke="grey" stroke-width="2" d="M281.478,-143.697C292.435,-134.881 305.919,-124.032 317.798,-114.474"/>
<polygon fill="grey" stroke="grey" stroke-width="2" points="320.117,-117.1 325.714,-108.104 315.729,-111.646 320.117,-117.1"/>
</g>
<!-- 3 -->
<g id="node4" class="node"><title>3</title>
<path fill="none" stroke="#d8cb56" stroke-width="2" stroke-dasharray="5,2" d="M465.295,-180C465.295,-180 410.65,-180 410.65,-180 404.65,-180 398.65,-174 398.65,-168 398.65,-168 398.65,-156 398.65,-156 398.65,-150 404.65,-144 410.65,-144 410.65,-144 465.295,-144 465.295,-144 471.295,-144 477.295,-150 477.295,-156 477.295,-156 477.295,-168 477.295,-168 477.295,-174 471.295,-180 465.295,-180"/>
<text text-anchor="middle" x="437.973" y="-159" font-family="sans" font-size="10.00">zip_refseq_db</text>
</g>
<!-- 3&#45;&gt;1 -->
<g id="edge3" class="edge"><title>3&#45;&gt;1</title>
<path fill="none" stroke="grey" stroke-width="2" d="M415.478,-143.697C404.018,-134.881 389.914,-124.032 377.489,-114.474"/>
<polygon fill="grey" stroke="grey" stroke-width="2" points="379.269,-111.427 369.208,-108.104 375.001,-116.976 379.269,-111.427"/>
</g>
<!-- 4 -->
<g id="node5" class="node"><title>4</title>
<path fill="none" stroke="#88d856" stroke-width="2" stroke-dasharray="5,2" d="M366.785,-180C366.785,-180 327.16,-180 327.16,-180 321.16,-180 315.16,-174 315.16,-168 315.16,-168 315.16,-156 315.16,-156 315.16,-150 321.16,-144 327.16,-144 327.16,-144 366.785,-144 366.785,-144 372.785,-144 378.785,-150 378.785,-156 378.785,-156 378.785,-168 378.785,-168 378.785,-174 372.785,-180 366.785,-180"/>
<text text-anchor="middle" x="346.973" y="-159" font-family="sans" font-size="10.00">zip_iso_db</text>
</g>
<!-- 4&#45;&gt;1 -->
<g id="edge4" class="edge"><title>4&#45;&gt;1</title>
<path fill="none" stroke="grey" stroke-width="2" d="M346.973,-143.697C346.973,-135.983 346.973,-126.712 346.973,-118.112"/>
<polygon fill="grey" stroke="grey" stroke-width="2" points="350.473,-118.104 346.973,-108.104 343.473,-118.104 350.473,-118.104"/>
</g>
<!-- 5 -->
<g id="node6" class="node"><title>5</title>
<path fill="none" stroke="#d86656" stroke-width="2" stroke-dasharray="5,2" d="M283.457,-252C283.457,-252 226.489,-252 226.489,-252 220.489,-252 214.489,-246 214.489,-240 214.489,-240 214.489,-228 214.489,-228 214.489,-222 220.489,-216 226.489,-216 226.489,-216 283.457,-216 283.457,-216 289.457,-216 295.457,-222 295.457,-228 295.457,-228 295.457,-240 295.457,-240 295.457,-246 289.457,-252 283.457,-252"/>
<text text-anchor="middle" x="254.973" y="-231" font-family="sans" font-size="10.00">merge_probes</text>
</g>
<!-- 5&#45;&gt;2 -->
<g id="edge5" class="edge"><title>5&#45;&gt;2</title>
<path fill="none" stroke="grey" stroke-width="2" d="M256.209,-215.697C256.76,-207.983 257.422,-198.712 258.036,-190.112"/>
<polygon fill="grey" stroke="grey" stroke-width="2" points="261.529,-190.328 258.751,-180.104 254.547,-189.83 261.529,-190.328"/>
</g>
<!-- 6 -->
<g id="node7" class="node"><title>6</title>
<path fill="none" stroke="#d85656" stroke-width="2" stroke-dasharray="5,2" d="M469.197,-252C469.197,-252 410.749,-252 410.749,-252 404.749,-252 398.749,-246 398.749,-240 398.749,-240 398.749,-228 398.749,-228 398.749,-222 404.749,-216 410.749,-216 410.749,-216 469.197,-216 469.197,-216 475.197,-216 481.197,-222 481.197,-228 481.197,-228 481.197,-240 481.197,-240 481.197,-246 475.197,-252 469.197,-252"/>
<text text-anchor="middle" x="439.973" y="-231" font-family="sans" font-size="10.00">gen_refseq_db</text>
</g>
<!-- 6&#45;&gt;3 -->
<g id="edge6" class="edge"><title>6&#45;&gt;3</title>
<path fill="none" stroke="grey" stroke-width="2" d="M439.478,-215.697C439.258,-207.983 438.993,-198.712 438.747,-190.112"/>
<polygon fill="grey" stroke="grey" stroke-width="2" points="442.246,-190 438.461,-180.104 435.248,-190.2 442.246,-190"/>
</g>
<!-- 7 -->
<g id="node8" class="node"><title>7</title>
<path fill="none" stroke="#56a2d8" stroke-width="2" stroke-dasharray="5,2" d="M368.687,-252C368.687,-252 325.258,-252 325.258,-252 319.258,-252 313.258,-246 313.258,-240 313.258,-240 313.258,-228 313.258,-228 313.258,-222 319.258,-216 325.258,-216 325.258,-216 368.687,-216 368.687,-216 374.687,-216 380.687,-222 380.687,-228 380.687,-228 380.687,-240 380.687,-240 380.687,-246 374.687,-252 368.687,-252"/>
<text text-anchor="middle" x="346.973" y="-231" font-family="sans" font-size="10.00">gen_iso_db</text>
</g>
<!-- 7&#45;&gt;4 -->
<g id="edge7" class="edge"><title>7&#45;&gt;4</title>
<path fill="none" stroke="grey" stroke-width="2" d="M346.973,-215.697C346.973,-207.983 346.973,-198.712 346.973,-190.112"/>
<polygon fill="grey" stroke="grey" stroke-width="2" points="350.473,-190.104 346.973,-180.104 343.473,-190.104 350.473,-190.104"/>
</g>
<!-- 8 -->
<g id="node9" class="node"><title>8</title>
<path fill="none" stroke="#56d88a" stroke-width="2" stroke-dasharray="5,2" d="M370.457,-324C370.457,-324 323.489,-324 323.489,-324 317.489,-324 311.489,-318 311.489,-312 311.489,-312 311.489,-300 311.489,-300 311.489,-294 317.489,-288 323.489,-288 323.489,-288 370.457,-288 370.457,-288 376.457,-288 382.457,-294 382.457,-300 382.457,-300 382.457,-312 382.457,-312 382.457,-318 376.457,-324 370.457,-324"/>
<text text-anchor="middle" x="346.973" y="-303" font-family="sans" font-size="10.00">final_probes</text>
</g>
<!-- 8&#45;&gt;5 -->
<g id="edge8" class="edge"><title>8&#45;&gt;5</title>
<path fill="none" stroke="grey" stroke-width="2" d="M324.231,-287.697C312.533,-278.796 298.112,-267.823 285.463,-258.199"/>
<polygon fill="grey" stroke="grey" stroke-width="2" points="287.53,-255.374 277.453,-252.104 283.292,-260.945 287.53,-255.374"/>
</g>
<!-- 8&#45;&gt;6 -->
<g id="edge10" class="edge"><title>8&#45;&gt;6</title>
<path fill="none" stroke="grey" stroke-width="2" d="M369.961,-287.697C381.787,-278.796 396.365,-267.823 409.151,-258.199"/>
<polygon fill="grey" stroke="grey" stroke-width="2" points="411.363,-260.915 417.248,-252.104 407.154,-255.322 411.363,-260.915"/>
</g>
<!-- 8&#45;&gt;7 -->
<g id="edge13" class="edge"><title>8&#45;&gt;7</title>
<path fill="none" stroke="grey" stroke-width="2" d="M346.973,-287.697C346.973,-279.983 346.973,-270.712 346.973,-262.112"/>
<polygon fill="grey" stroke="grey" stroke-width="2" points="350.473,-262.104 346.973,-252.104 343.473,-262.104 350.473,-262.104"/>
</g>
<!-- 9 -->
<g id="node10" class="node"><title>9</title>
<path fill="none" stroke="#56d88a" stroke-width="2" stroke-dasharray="5,2" d="M278.457,-324C278.457,-324 231.489,-324 231.489,-324 225.489,-324 219.489,-318 219.489,-312 219.489,-312 219.489,-300 219.489,-300 219.489,-294 225.489,-288 231.489,-288 231.489,-288 278.457,-288 278.457,-288 284.457,-288 290.457,-294 290.457,-300 290.457,-300 290.457,-312 290.457,-312 290.457,-318 284.457,-324 278.457,-324"/>
<text text-anchor="middle" x="254.973" y="-303" font-family="sans" font-size="10.00">final_probes</text>
</g>
<!-- 9&#45;&gt;5 -->
<g id="edge9" class="edge"><title>9&#45;&gt;5</title>
<path fill="none" stroke="grey" stroke-width="2" d="M254.973,-287.697C254.973,-279.983 254.973,-270.712 254.973,-262.112"/>
<polygon fill="grey" stroke="grey" stroke-width="2" points="258.473,-262.104 254.973,-252.104 251.473,-262.104 258.473,-262.104"/>
</g>
<!-- 9&#45;&gt;6 -->
<g id="edge11" class="edge"><title>9&#45;&gt;6</title>
<path fill="none" stroke="grey" stroke-width="2" d="M290.643,-291.503C318.618,-280.918 357.916,-266.048 389.177,-254.22"/>
<polygon fill="grey" stroke="grey" stroke-width="2" points="390.485,-257.467 398.599,-250.655 388.007,-250.92 390.485,-257.467"/>
</g>
<!-- 9&#45;&gt;7 -->
<g id="edge14" class="edge"><title>9&#45;&gt;7</title>
<path fill="none" stroke="grey" stroke-width="2" d="M277.714,-287.697C289.412,-278.796 303.834,-267.823 316.483,-258.199"/>
<polygon fill="grey" stroke="grey" stroke-width="2" points="318.654,-260.945 324.493,-252.104 314.415,-255.374 318.654,-260.945"/>
</g>
<!-- 10 -->
<g id="node11" class="node"><title>10</title>
<path fill="none" stroke="#56d8d0" stroke-width="2" stroke-dasharray="5,2" d="M664.668,-468C664.668,-468 631.278,-468 631.278,-468 625.278,-468 619.278,-462 619.278,-456 619.278,-456 619.278,-444 619.278,-444 619.278,-438 625.278,-432 631.278,-432 631.278,-432 664.668,-432 664.668,-432 670.668,-432 676.668,-438 676.668,-444 676.668,-444 676.668,-456 676.668,-456 676.668,-462 670.668,-468 664.668,-468"/>
<text text-anchor="middle" x="647.973" y="-447" font-family="sans" font-size="10.00">parse_gtf</text>
</g>
<!-- 10&#45;&gt;6 -->
<g id="edge12" class="edge"><title>10&#45;&gt;6</title>
<path fill="none" stroke="grey" stroke-width="2" d="M676.824,-440.371C697.616,-432.469 724.176,-418.514 736.973,-396 744.879,-382.09 745.795,-373.348 736.973,-360 682.327,-277.32 561.084,-249.211 491.585,-239.739"/>
<polygon fill="grey" stroke="grey" stroke-width="2" points="491.671,-236.222 481.307,-238.423 490.781,-243.165 491.671,-236.222"/>
</g>
<!-- 17 -->
<g id="node18" class="node"><title>17</title>
<path fill="none" stroke="#56d863" stroke-width="2" stroke-dasharray="5,2" d="M556.985,-396C556.985,-396 440.96,-396 440.96,-396 434.96,-396 428.96,-390 428.96,-384 428.96,-384 428.96,-372 428.96,-372 428.96,-366 434.96,-360 440.96,-360 440.96,-360 556.985,-360 556.985,-360 562.985,-360 568.985,-366 568.985,-372 568.985,-372 568.985,-384 568.985,-384 568.985,-390 562.985,-396 556.985,-396"/>
<text text-anchor="middle" x="498.973" y="-380" font-family="sans" font-size="10.00">flatten_isoforms</text>
<text text-anchor="middle" x="498.973" y="-370" font-family="sans" font-size="10.00">chrom_gtf: NZ_CP091797.1</text>
</g>
<!-- 10&#45;&gt;17 -->
<g id="edge29" class="edge"><title>10&#45;&gt;17</title>
<path fill="none" stroke="grey" stroke-width="2" d="M619.244,-435.503C598.023,-425.534 568.712,-411.764 544.34,-400.313"/>
<polygon fill="grey" stroke="grey" stroke-width="2" points="545.807,-397.136 535.267,-396.051 542.83,-403.471 545.807,-397.136"/>
</g>
<!-- 18 -->
<g id="node19" class="node"><title>18</title>
<path fill="none" stroke="#56d863" stroke-width="2" stroke-dasharray="5,2" d="M715.985,-396C715.985,-396 599.96,-396 599.96,-396 593.96,-396 587.96,-390 587.96,-384 587.96,-384 587.96,-372 587.96,-372 587.96,-366 593.96,-360 599.96,-360 599.96,-360 715.985,-360 715.985,-360 721.985,-360 727.985,-366 727.985,-372 727.985,-372 727.985,-384 727.985,-384 727.985,-390 721.985,-396 715.985,-396"/>
<text text-anchor="middle" x="657.973" y="-380" font-family="sans" font-size="10.00">flatten_isoforms</text>
<text text-anchor="middle" x="657.973" y="-370" font-family="sans" font-size="10.00">chrom_gtf: NZ_CP091798.1</text>
</g>
<!-- 10&#45;&gt;18 -->
<g id="edge30" class="edge"><title>10&#45;&gt;18</title>
<path fill="none" stroke="grey" stroke-width="2" d="M650.445,-431.697C651.547,-423.983 652.871,-414.712 654.099,-406.112"/>
<polygon fill="grey" stroke="grey" stroke-width="2" points="657.58,-406.499 655.529,-396.104 650.65,-405.509 657.58,-406.499"/>
</g>
<!-- 11 -->
<g id="node12" class="node"><title>11</title>
<path fill="none" stroke="#d8a456" stroke-width="2" stroke-dasharray="5,2" d="M546.99,-324C546.99,-324 450.955,-324 450.955,-324 444.955,-324 438.955,-318 438.955,-312 438.955,-312 438.955,-300 438.955,-300 438.955,-294 444.955,-288 450.955,-288 450.955,-288 546.99,-288 546.99,-288 552.99,-288 558.99,-294 558.99,-300 558.99,-300 558.99,-312 558.99,-312 558.99,-318 552.99,-324 546.99,-324"/>
<text text-anchor="middle" x="498.973" y="-303" font-family="sans" font-size="10.00">merge_flat_annotations</text>
</g>
<!-- 11&#45;&gt;7 -->
<g id="edge15" class="edge"><title>11&#45;&gt;7</title>
<path fill="none" stroke="grey" stroke-width="2" d="M461.789,-287.876C440.179,-277.924 412.846,-265.337 390.27,-254.94"/>
<polygon fill="grey" stroke="grey" stroke-width="2" points="391.464,-251.636 380.917,-250.632 388.536,-257.994 391.464,-251.636"/>
</g>
<!-- 12 -->
<g id="node13" class="node"><title>12</title>
<path fill="none" stroke="#d6d856" stroke-width="2" stroke-dasharray="5,2" d="M398.833,-396C398.833,-396 363.112,-396 363.112,-396 357.112,-396 351.112,-390 351.112,-384 351.112,-384 351.112,-372 351.112,-372 351.112,-366 357.112,-360 363.112,-360 363.112,-360 398.833,-360 398.833,-360 404.833,-360 410.833,-366 410.833,-372 410.833,-372 410.833,-384 410.833,-384 410.833,-390 404.833,-396 398.833,-396"/>
<text text-anchor="middle" x="380.973" y="-375" font-family="sans" font-size="10.00">calc_prob</text>
</g>
<!-- 12&#45;&gt;8 -->
<g id="edge16" class="edge"><title>12&#45;&gt;8</title>
<path fill="none" stroke="grey" stroke-width="2" d="M372.568,-359.697C368.698,-351.728 364.021,-342.1 359.73,-333.264"/>
<polygon fill="grey" stroke="grey" stroke-width="2" points="362.798,-331.57 355.28,-324.104 356.501,-334.629 362.798,-331.57"/>
</g>
<!-- 13 -->
<g id="node14" class="node"><title>13</title>
<path fill="none" stroke="#afd856" stroke-width="2" stroke-dasharray="5,2" d="M321.148,-396C321.148,-396 282.797,-396 282.797,-396 276.797,-396 270.797,-390 270.797,-384 270.797,-384 270.797,-372 270.797,-372 270.797,-366 276.797,-360 282.797,-360 282.797,-360 321.148,-360 321.148,-360 327.148,-360 333.148,-366 333.148,-372 333.148,-372 333.148,-384 333.148,-384 333.148,-390 327.148,-396 321.148,-396"/>
<text text-anchor="middle" x="301.973" y="-375" font-family="sans" font-size="10.00">max_kmer</text>
</g>
<!-- 13&#45;&gt;8 -->
<g id="edge17" class="edge"><title>13&#45;&gt;8</title>
<path fill="none" stroke="grey" stroke-width="2" d="M313.096,-359.697C318.328,-351.559 324.673,-341.689 330.45,-332.701"/>
<polygon fill="grey" stroke="grey" stroke-width="2" points="333.514,-334.409 335.977,-324.104 327.625,-330.623 333.514,-334.409"/>
</g>
<!-- 14 -->
<g id="node15" class="node"><title>14</title>
<path fill="none" stroke="#d6d856" stroke-width="2" stroke-dasharray="5,2" d="M159.833,-396C159.833,-396 124.112,-396 124.112,-396 118.112,-396 112.112,-390 112.112,-384 112.112,-384 112.112,-372 112.112,-372 112.112,-366 118.112,-360 124.112,-360 124.112,-360 159.833,-360 159.833,-360 165.833,-360 171.833,-366 171.833,-372 171.833,-372 171.833,-384 171.833,-384 171.833,-390 165.833,-396 159.833,-396"/>
<text text-anchor="middle" x="141.973" y="-375" font-family="sans" font-size="10.00">calc_prob</text>
</g>
<!-- 14&#45;&gt;9 -->
<g id="edge18" class="edge"><title>14&#45;&gt;9</title>
<path fill="none" stroke="grey" stroke-width="2" d="M169.616,-359.876C184.39,-350.724 202.764,-339.342 218.675,-329.485"/>
<polygon fill="grey" stroke="grey" stroke-width="2" points="220.566,-332.431 227.223,-324.19 216.879,-326.481 220.566,-332.431"/>
</g>
<!-- 15 -->
<g id="node16" class="node"><title>15</title>
<path fill="none" stroke="#afd856" stroke-width="2" stroke-dasharray="5,2" d="M240.148,-396C240.148,-396 201.797,-396 201.797,-396 195.797,-396 189.797,-390 189.797,-384 189.797,-384 189.797,-372 189.797,-372 189.797,-366 195.797,-360 201.797,-360 201.797,-360 240.148,-360 240.148,-360 246.148,-360 252.148,-366 252.148,-372 252.148,-372 252.148,-384 252.148,-384 252.148,-390 246.148,-396 240.148,-396"/>
<text text-anchor="middle" x="220.973" y="-375" font-family="sans" font-size="10.00">max_kmer</text>
</g>
<!-- 15&#45;&gt;9 -->
<g id="edge19" class="edge"><title>15&#45;&gt;9</title>
<path fill="none" stroke="grey" stroke-width="2" d="M229.377,-359.697C233.247,-351.728 237.924,-342.1 242.216,-333.264"/>
<polygon fill="grey" stroke="grey" stroke-width="2" points="245.444,-334.629 246.665,-324.104 239.147,-331.57 245.444,-334.629"/>
</g>
<!-- 16 -->
<g id="node17" class="node"><title>16</title>
<path fill="none" stroke="#bed856" stroke-width="2" stroke-dasharray="5,2" d="M322.187,-972C322.187,-972 263.758,-972 263.758,-972 257.758,-972 251.758,-966 251.758,-960 251.758,-960 251.758,-948 251.758,-948 251.758,-942 257.758,-936 263.758,-936 263.758,-936 322.187,-936 322.187,-936 328.187,-936 334.187,-942 334.187,-948 334.187,-948 334.187,-960 334.187,-960 334.187,-966 328.187,-972 322.187,-972"/>
<text text-anchor="middle" x="292.973" y="-951" font-family="sans" font-size="10.00">parse_genome</text>
</g>
<!-- 16&#45;&gt;10 -->
<g id="edge20" class="edge"><title>16&#45;&gt;10</title>
<path fill="none" stroke="grey" stroke-width="2" d="M334.51,-953.768C424.407,-953.044 628.973,-937.499 628.973,-811 628.973,-811 628.973,-811 628.973,-593 628.973,-552.86 636.523,-506.897 642.105,-478.405"/>
<polygon fill="grey" stroke="grey" stroke-width="2" points="645.579,-478.883 644.128,-468.388 638.717,-477.498 645.579,-478.883"/>
</g>
<!-- 20 -->
<g id="node21" class="node"><title>20</title>
<path fill="none" stroke="#d87d56" stroke-width="2" stroke-dasharray="5,2" d="M309.952,-468C309.952,-468 257.994,-468 257.994,-468 251.994,-468 245.994,-462 245.994,-456 245.994,-456 245.994,-444 245.994,-444 245.994,-438 251.994,-432 257.994,-432 257.994,-432 309.952,-432 309.952,-432 315.952,-432 321.952,-438 321.952,-444 321.952,-444 321.952,-456 321.952,-456 321.952,-462 315.952,-468 309.952,-468"/>
<text text-anchor="middle" x="283.973" y="-447" font-family="sans" font-size="10.00">build_jellyfish</text>
</g>
<!-- 16&#45;&gt;20 -->
<g id="edge32" class="edge"><title>16&#45;&gt;20</title>
<path fill="none" stroke="grey" stroke-width="2" d="M292.973,-935.951C292.973,-909.292 292.973,-856.115 292.973,-811 292.973,-811 292.973,-811 292.973,-593 292.973,-552.916 289.357,-506.594 286.709,-478.048"/>
<polygon fill="grey" stroke="grey" stroke-width="2" points="290.187,-477.649 285.751,-468.027 283.218,-478.315 290.187,-477.649"/>
</g>
<!-- 34 -->
<g id="node35" class="node"><title>34</title>
<path fill="none" stroke="#56d89a" stroke-width="2" stroke-dasharray="5,2" d="M432.805,-900C432.805,-900 333.141,-900 333.141,-900 327.141,-900 321.141,-894 321.141,-888 321.141,-888 321.141,-876 321.141,-876 321.141,-870 327.141,-864 333.141,-864 333.141,-864 432.805,-864 432.805,-864 438.805,-864 444.805,-870 444.805,-876 444.805,-876 444.805,-888 444.805,-888 444.805,-894 438.805,-900 432.805,-900"/>
<text text-anchor="middle" x="382.973" y="-884" font-family="sans" font-size="10.00">design_probes</text>
<text text-anchor="middle" x="382.973" y="-874" font-family="sans" font-size="10.00">chrom: NZ_CP091798.1</text>
</g>
<!-- 16&#45;&gt;34 -->
<g id="edge50" class="edge"><title>16&#45;&gt;34</title>
<path fill="none" stroke="grey" stroke-width="2" d="M315.22,-935.697C326.555,-926.881 340.503,-916.032 352.792,-906.474"/>
<polygon fill="grey" stroke="grey" stroke-width="2" points="355.237,-909.007 360.981,-900.104 350.939,-903.481 355.237,-909.007"/>
</g>
<!-- 35 -->
<g id="node36" class="node"><title>35</title>
<path fill="none" stroke="#70d856" stroke-width="2" stroke-dasharray="5,2" d="M252.569,-900C252.569,-900 205.376,-900 205.376,-900 199.376,-900 193.376,-894 193.376,-888 193.376,-888 193.376,-876 193.376,-876 193.376,-870 199.376,-864 205.376,-864 205.376,-864 252.569,-864 252.569,-864 258.569,-864 264.569,-870 264.569,-876 264.569,-876 264.569,-888 264.569,-888 264.569,-894 258.569,-900 252.569,-900"/>
<text text-anchor="middle" x="228.973" y="-879" font-family="sans" font-size="10.00">build_bowtie</text>
</g>
<!-- 16&#45;&gt;35 -->
<g id="edge51" class="edge"><title>16&#45;&gt;35</title>
<path fill="none" stroke="grey" stroke-width="2" d="M277.152,-935.697C269.402,-927.22 259.934,-916.864 251.448,-907.583"/>
<polygon fill="grey" stroke="grey" stroke-width="2" points="253.942,-905.123 244.611,-900.104 248.776,-909.846 253.942,-905.123"/>
</g>
<!-- 36 -->
<g id="node37" class="node"><title>36</title>
<path fill="none" stroke="#56d89a" stroke-width="2" stroke-dasharray="5,2" d="M162.805,-900C162.805,-900 63.1405,-900 63.1405,-900 57.1405,-900 51.1405,-894 51.1405,-888 51.1405,-888 51.1405,-876 51.1405,-876 51.1405,-870 57.1405,-864 63.1405,-864 63.1405,-864 162.805,-864 162.805,-864 168.805,-864 174.805,-870 174.805,-876 174.805,-876 174.805,-888 174.805,-888 174.805,-894 168.805,-900 162.805,-900"/>
<text text-anchor="middle" x="112.973" y="-884" font-family="sans" font-size="10.00">design_probes</text>
<text text-anchor="middle" x="112.973" y="-874" font-family="sans" font-size="10.00">chrom: NZ_CP091797.1</text>
</g>
<!-- 16&#45;&gt;36 -->
<g id="edge52" class="edge"><title>16&#45;&gt;36</title>
<path fill="none" stroke="grey" stroke-width="2" d="M251.677,-936.941C226.33,-927.083 193.607,-914.358 166.312,-903.743"/>
<polygon fill="grey" stroke="grey" stroke-width="2" points="167.493,-900.447 156.904,-900.084 164.955,-906.971 167.493,-900.447"/>
</g>
<!-- 17&#45;&gt;11 -->
<g id="edge21" class="edge"><title>17&#45;&gt;11</title>
<path fill="none" stroke="grey" stroke-width="2" d="M498.973,-359.697C498.973,-351.983 498.973,-342.712 498.973,-334.112"/>
<polygon fill="grey" stroke="grey" stroke-width="2" points="502.473,-334.104 498.973,-324.104 495.473,-334.104 502.473,-334.104"/>
</g>
<!-- 18&#45;&gt;11 -->
<g id="edge22" class="edge"><title>18&#45;&gt;11</title>
<path fill="none" stroke="grey" stroke-width="2" d="M619.077,-359.876C597.341,-350.307 570.069,-338.3 547.008,-328.148"/>
<polygon fill="grey" stroke="grey" stroke-width="2" points="548.305,-324.894 537.742,-324.068 545.484,-331.301 548.305,-324.894"/>
</g>
<!-- 19 -->
<g id="node20" class="node"><title>19</title>
<path fill="none" stroke="#61d856" stroke-width="2" stroke-dasharray="5,2" d="M410.125,-468C410.125,-468 351.82,-468 351.82,-468 345.82,-468 339.82,-462 339.82,-456 339.82,-456 339.82,-444 339.82,-444 339.82,-438 345.82,-432 351.82,-432 351.82,-432 410.125,-432 410.125,-432 416.125,-432 422.125,-438 422.125,-444 422.125,-444 422.125,-456 422.125,-456 422.125,-462 416.125,-468 410.125,-468"/>
<text text-anchor="middle" x="380.973" y="-447" font-family="sans" font-size="10.00">filter_n_probes</text>
</g>
<!-- 19&#45;&gt;12 -->
<g id="edge23" class="edge"><title>19&#45;&gt;12</title>
<path fill="none" stroke="grey" stroke-width="2" d="M380.973,-431.697C380.973,-423.983 380.973,-414.712 380.973,-406.112"/>
<polygon fill="grey" stroke="grey" stroke-width="2" points="384.473,-406.104 380.973,-396.104 377.473,-406.104 384.473,-406.104"/>
</g>
<!-- 19&#45;&gt;13 -->
<g id="edge24" class="edge"><title>19&#45;&gt;13</title>
<path fill="none" stroke="grey" stroke-width="2" d="M361.445,-431.697C351.591,-422.965 339.487,-412.24 328.777,-402.75"/>
<polygon fill="grey" stroke="grey" stroke-width="2" points="331.082,-400.117 321.276,-396.104 326.44,-405.356 331.082,-400.117"/>
</g>
<!-- 20&#45;&gt;13 -->
<g id="edge25" class="edge"><title>20&#45;&gt;13</title>
<path fill="none" stroke="grey" stroke-width="2" d="M288.422,-431.697C290.427,-423.898 292.842,-414.509 295.074,-405.829"/>
<polygon fill="grey" stroke="grey" stroke-width="2" points="298.474,-406.661 297.574,-396.104 291.694,-404.918 298.474,-406.661"/>
</g>
<!-- 20&#45;&gt;15 -->
<g id="edge28" class="edge"><title>20&#45;&gt;15</title>
<path fill="none" stroke="grey" stroke-width="2" d="M268.4,-431.697C260.77,-423.22 251.45,-412.864 243.097,-403.583"/>
<polygon fill="grey" stroke="grey" stroke-width="2" points="245.658,-401.196 236.367,-396.104 240.455,-405.879 245.658,-401.196"/>
</g>
<!-- 21 -->
<g id="node22" class="node"><title>21</title>
<path fill="none" stroke="#61d856" stroke-width="2" stroke-dasharray="5,2" d="M193.125,-468C193.125,-468 134.82,-468 134.82,-468 128.82,-468 122.82,-462 122.82,-456 122.82,-456 122.82,-444 122.82,-444 122.82,-438 128.82,-432 134.82,-432 134.82,-432 193.125,-432 193.125,-432 199.125,-432 205.125,-438 205.125,-444 205.125,-444 205.125,-456 205.125,-456 205.125,-462 199.125,-468 193.125,-468"/>
<text text-anchor="middle" x="163.973" y="-447" font-family="sans" font-size="10.00">filter_n_probes</text>
</g>
<!-- 21&#45;&gt;14 -->
<g id="edge26" class="edge"><title>21&#45;&gt;14</title>
<path fill="none" stroke="grey" stroke-width="2" d="M158.534,-431.697C156.083,-423.898 153.132,-414.509 150.405,-405.829"/>
<polygon fill="grey" stroke="grey" stroke-width="2" points="153.686,-404.595 147.348,-396.104 147.008,-406.694 153.686,-404.595"/>
</g>
<!-- 21&#45;&gt;15 -->
<g id="edge27" class="edge"><title>21&#45;&gt;15</title>
<path fill="none" stroke="grey" stroke-width="2" d="M178.063,-431.697C184.896,-423.305 193.23,-413.07 200.728,-403.861"/>
<polygon fill="grey" stroke="grey" stroke-width="2" points="203.445,-406.069 207.045,-396.104 198.017,-401.649 203.445,-406.069"/>
</g>
<!-- 22 -->
<g id="node23" class="node"><title>22</title>
<path fill="none" stroke="#56b9d8" stroke-width="2" stroke-dasharray="5,2" d="M395.973,-540C395.973,-540 365.973,-540 365.973,-540 359.973,-540 353.973,-534 353.973,-528 353.973,-528 353.973,-516 353.973,-516 353.973,-510 359.973,-504 365.973,-504 365.973,-504 395.973,-504 395.973,-504 401.973,-504 407.973,-510 407.973,-516 407.973,-516 407.973,-528 407.973,-528 407.973,-534 401.973,-540 395.973,-540"/>
<text text-anchor="middle" x="380.973" y="-519" font-family="sans" font-size="10.00">score</text>
</g>
<!-- 22&#45;&gt;19 -->
<g id="edge31" class="edge"><title>22&#45;&gt;19</title>
<path fill="none" stroke="grey" stroke-width="2" d="M380.973,-503.697C380.973,-495.983 380.973,-486.712 380.973,-478.112"/>
<polygon fill="grey" stroke="grey" stroke-width="2" points="384.473,-478.104 380.973,-468.104 377.473,-478.104 384.473,-478.104"/>
</g>
<!-- 23 -->
<g id="node24" class="node"><title>23</title>
<path fill="none" stroke="#56b9d8" stroke-width="2" stroke-dasharray="5,2" d="M178.973,-540C178.973,-540 148.973,-540 148.973,-540 142.973,-540 136.973,-534 136.973,-528 136.973,-528 136.973,-516 136.973,-516 136.973,-510 142.973,-504 148.973,-504 148.973,-504 178.973,-504 178.973,-504 184.973,-504 190.973,-510 190.973,-516 190.973,-516 190.973,-528 190.973,-528 190.973,-534 184.973,-540 178.973,-540"/>
<text text-anchor="middle" x="163.973" y="-519" font-family="sans" font-size="10.00">score</text>
</g>
<!-- 23&#45;&gt;21 -->
<g id="edge33" class="edge"><title>23&#45;&gt;21</title>
<path fill="none" stroke="grey" stroke-width="2" d="M163.973,-503.697C163.973,-495.983 163.973,-486.712 163.973,-478.112"/>
<polygon fill="grey" stroke="grey" stroke-width="2" points="167.473,-478.104 163.973,-468.104 160.473,-478.104 167.473,-478.104"/>
</g>
<!-- 24 -->
<g id="node25" class="node"><title>24</title>
<path fill="none" stroke="#56c9d8" stroke-width="2" stroke-dasharray="5,2" d="M409.517,-612C409.517,-612 352.429,-612 352.429,-612 346.429,-612 340.429,-606 340.429,-600 340.429,-600 340.429,-588 340.429,-588 340.429,-582 346.429,-576 352.429,-576 352.429,-576 409.517,-576 409.517,-576 415.517,-576 421.517,-582 421.517,-588 421.517,-588 421.517,-600 421.517,-600 421.517,-606 415.517,-612 409.517,-612"/>
<text text-anchor="middle" x="380.973" y="-591" font-family="sans" font-size="10.00">predict_duplex</text>
</g>
<!-- 24&#45;&gt;22 -->
<g id="edge34" class="edge"><title>24&#45;&gt;22</title>
<path fill="none" stroke="grey" stroke-width="2" d="M380.973,-575.697C380.973,-567.983 380.973,-558.712 380.973,-550.112"/>
<polygon fill="grey" stroke="grey" stroke-width="2" points="384.473,-550.104 380.973,-540.104 377.473,-550.104 384.473,-550.104"/>
</g>
<!-- 25 -->
<g id="node26" class="node"><title>25</title>
<path fill="none" stroke="#56c9d8" stroke-width="2" stroke-dasharray="5,2" d="M192.517,-612C192.517,-612 135.429,-612 135.429,-612 129.429,-612 123.429,-606 123.429,-600 123.429,-600 123.429,-588 123.429,-588 123.429,-582 129.429,-576 135.429,-576 135.429,-576 192.517,-576 192.517,-576 198.517,-576 204.517,-582 204.517,-588 204.517,-588 204.517,-600 204.517,-600 204.517,-606 198.517,-612 192.517,-612"/>
<text text-anchor="middle" x="163.973" y="-591" font-family="sans" font-size="10.00">predict_duplex</text>
</g>
<!-- 25&#45;&gt;23 -->
<g id="edge35" class="edge"><title>25&#45;&gt;23</title>
<path fill="none" stroke="grey" stroke-width="2" d="M163.973,-575.697C163.973,-567.983 163.973,-558.712 163.973,-550.112"/>
<polygon fill="grey" stroke="grey" stroke-width="2" points="167.473,-550.104 163.973,-540.104 160.473,-550.104 167.473,-550.104"/>
</g>
<!-- 26 -->
<g id="node27" class="node"><title>26</title>
<path fill="none" stroke="#56d873" stroke-width="2" stroke-dasharray="5,2" d="M410.729,-684C410.729,-684 351.216,-684 351.216,-684 345.216,-684 339.216,-678 339.216,-672 339.216,-672 339.216,-660 339.216,-660 339.216,-654 345.216,-648 351.216,-648 351.216,-648 410.729,-648 410.729,-648 416.729,-648 422.729,-654 422.729,-660 422.729,-660 422.729,-672 422.729,-672 422.729,-678 416.729,-684 410.729,-684"/>
<text text-anchor="middle" x="380.973" y="-663" font-family="sans" font-size="10.00">parse_pairwise</text>
</g>
<!-- 26&#45;&gt;24 -->
<g id="edge36" class="edge"><title>26&#45;&gt;24</title>
<path fill="none" stroke="grey" stroke-width="2" d="M380.973,-647.697C380.973,-639.983 380.973,-630.712 380.973,-622.112"/>
<polygon fill="grey" stroke="grey" stroke-width="2" points="384.473,-622.104 380.973,-612.104 377.473,-622.104 384.473,-622.104"/>
</g>
<!-- 27 -->
<g id="node28" class="node"><title>27</title>
<path fill="none" stroke="#56d873" stroke-width="2" stroke-dasharray="5,2" d="M193.729,-684C193.729,-684 134.216,-684 134.216,-684 128.216,-684 122.216,-678 122.216,-672 122.216,-672 122.216,-660 122.216,-660 122.216,-654 128.216,-648 134.216,-648 134.216,-648 193.729,-648 193.729,-648 199.729,-648 205.729,-654 205.729,-660 205.729,-660 205.729,-672 205.729,-672 205.729,-678 199.729,-684 193.729,-684"/>
<text text-anchor="middle" x="163.973" y="-663" font-family="sans" font-size="10.00">parse_pairwise</text>
</g>
<!-- 27&#45;&gt;25 -->
<g id="edge37" class="edge"><title>27&#45;&gt;25</title>
<path fill="none" stroke="grey" stroke-width="2" d="M163.973,-647.697C163.973,-639.983 163.973,-630.712 163.973,-622.112"/>
<polygon fill="grey" stroke="grey" stroke-width="2" points="167.473,-622.104 163.973,-612.104 160.473,-622.104 167.473,-622.104"/>
</g>
<!-- 28 -->
<g id="node29" class="node"><title>28</title>
<path fill="none" stroke="#566bd8" stroke-width="2" stroke-dasharray="5,2" d="M404.507,-756C404.507,-756 337.438,-756 337.438,-756 331.438,-756 325.438,-750 325.438,-744 325.438,-744 325.438,-732 325.438,-732 325.438,-726 331.438,-720 337.438,-720 337.438,-720 404.507,-720 404.507,-720 410.507,-720 416.507,-726 416.507,-732 416.507,-732 416.507,-744 416.507,-744 416.507,-750 410.507,-756 404.507,-756"/>
<text text-anchor="middle" x="370.973" y="-735" font-family="sans" font-size="10.00">sam_to_pairwise</text>
</g>
<!-- 28&#45;&gt;26 -->
<g id="edge38" class="edge"><title>28&#45;&gt;26</title>
<path fill="none" stroke="grey" stroke-width="2" d="M373.445,-719.697C374.547,-711.983 375.871,-702.712 377.099,-694.112"/>
<polygon fill="grey" stroke="grey" stroke-width="2" points="380.58,-694.499 378.529,-684.104 373.65,-693.509 380.58,-694.499"/>
</g>
<!-- 29 -->
<g id="node30" class="node"><title>29</title>
<path fill="none" stroke="#56d8c1" stroke-width="2" stroke-dasharray="5,2" d="M551.918,-756C551.918,-756 446.027,-756 446.027,-756 440.027,-756 434.027,-750 434.027,-744 434.027,-744 434.027,-732 434.027,-732 434.027,-726 440.027,-720 446.027,-720 446.027,-720 551.918,-720 551.918,-720 557.918,-720 563.918,-726 563.918,-732 563.918,-732 563.918,-744 563.918,-744 563.918,-750 557.918,-756 551.918,-756"/>
<text text-anchor="middle" x="498.973" y="-735" font-family="sans" font-size="10.00">extract_alignment_scores</text>
</g>
<!-- 29&#45;&gt;26 -->
<g id="edge39" class="edge"><title>29&#45;&gt;26</title>
<path fill="none" stroke="grey" stroke-width="2" d="M470.107,-719.876C454.678,-710.724 435.492,-699.342 418.876,-689.485"/>
<polygon fill="grey" stroke="grey" stroke-width="2" points="420.336,-686.282 409.95,-684.19 416.765,-692.302 420.336,-686.282"/>
</g>
<!-- 30 -->
<g id="node31" class="node"><title>30</title>
<path fill="none" stroke="#566bd8" stroke-width="2" stroke-dasharray="5,2" d="M226.507,-756C226.507,-756 159.438,-756 159.438,-756 153.438,-756 147.438,-750 147.438,-744 147.438,-744 147.438,-732 147.438,-732 147.438,-726 153.438,-720 159.438,-720 159.438,-720 226.507,-720 226.507,-720 232.507,-720 238.507,-726 238.507,-732 238.507,-732 238.507,-744 238.507,-744 238.507,-750 232.507,-756 226.507,-756"/>
<text text-anchor="middle" x="192.973" y="-735" font-family="sans" font-size="10.00">sam_to_pairwise</text>
</g>
<!-- 30&#45;&gt;27 -->
<g id="edge40" class="edge"><title>30&#45;&gt;27</title>
<path fill="none" stroke="grey" stroke-width="2" d="M185.804,-719.697C182.538,-711.813 178.599,-702.304 174.97,-693.546"/>
<polygon fill="grey" stroke="grey" stroke-width="2" points="178.12,-692.003 171.059,-684.104 171.653,-694.683 178.12,-692.003"/>
</g>
<!-- 31 -->
<g id="node32" class="node"><title>31</title>
<path fill="none" stroke="#56d8c1" stroke-width="2" stroke-dasharray="5,2" d="M117.918,-756C117.918,-756 12.0273,-756 12.0273,-756 6.02733,-756 0.0273322,-750 0.0273322,-744 0.0273322,-744 0.0273322,-732 0.0273322,-732 0.0273322,-726 6.02733,-720 12.0273,-720 12.0273,-720 117.918,-720 117.918,-720 123.918,-720 129.918,-726 129.918,-732 129.918,-732 129.918,-744 129.918,-744 129.918,-750 123.918,-756 117.918,-756"/>
<text text-anchor="middle" x="64.9727" y="-735" font-family="sans" font-size="10.00">extract_alignment_scores</text>
</g>
<!-- 31&#45;&gt;27 -->
<g id="edge41" class="edge"><title>31&#45;&gt;27</title>
<path fill="none" stroke="grey" stroke-width="2" d="M89.1908,-719.876C101.895,-710.893 117.637,-699.763 131.396,-690.034"/>
<polygon fill="grey" stroke="grey" stroke-width="2" points="133.517,-692.821 139.661,-684.19 129.476,-687.105 133.517,-692.821"/>
</g>
<!-- 32 -->
<g id="node33" class="node"><title>32</title>
<path fill="none" stroke="#567bd8" stroke-width="2" stroke-dasharray="5,2" d="M403.739,-828C403.739,-828 354.207,-828 354.207,-828 348.207,-828 342.207,-822 342.207,-816 342.207,-816 342.207,-804 342.207,-804 342.207,-798 348.207,-792 354.207,-792 354.207,-792 403.739,-792 403.739,-792 409.739,-792 415.739,-798 415.739,-804 415.739,-804 415.739,-816 415.739,-816 415.739,-822 409.739,-828 403.739,-828"/>
<text text-anchor="middle" x="378.973" y="-807" font-family="sans" font-size="10.00">align_probes</text>
</g>
<!-- 32&#45;&gt;28 -->
<g id="edge42" class="edge"><title>32&#45;&gt;28</title>
<path fill="none" stroke="grey" stroke-width="2" d="M376.995,-791.697C376.114,-783.983 375.054,-774.712 374.071,-766.112"/>
<polygon fill="grey" stroke="grey" stroke-width="2" points="377.54,-765.642 372.927,-756.104 370.586,-766.437 377.54,-765.642"/>
</g>
<!-- 32&#45;&gt;29 -->
<g id="edge43" class="edge"><title>32&#45;&gt;29</title>
<path fill="none" stroke="grey" stroke-width="2" d="M408.328,-791.876C424.018,-782.724 443.53,-771.342 460.427,-761.485"/>
<polygon fill="grey" stroke="grey" stroke-width="2" points="462.63,-764.252 469.505,-756.19 459.103,-758.205 462.63,-764.252"/>
</g>
<!-- 33 -->
<g id="node34" class="node"><title>33</title>
<path fill="none" stroke="#567bd8" stroke-width="2" stroke-dasharray="5,2" d="M190.739,-828C190.739,-828 141.207,-828 141.207,-828 135.207,-828 129.207,-822 129.207,-816 129.207,-816 129.207,-804 129.207,-804 129.207,-798 135.207,-792 141.207,-792 141.207,-792 190.739,-792 190.739,-792 196.739,-792 202.739,-798 202.739,-804 202.739,-804 202.739,-816 202.739,-816 202.739,-822 196.739,-828 190.739,-828"/>
<text text-anchor="middle" x="165.973" y="-807" font-family="sans" font-size="10.00">align_probes</text>
</g>
<!-- 33&#45;&gt;30 -->
<g id="edge44" class="edge"><title>33&#45;&gt;30</title>
<path fill="none" stroke="grey" stroke-width="2" d="M172.647,-791.697C175.688,-783.813 179.355,-774.304 182.733,-765.546"/>
<polygon fill="grey" stroke="grey" stroke-width="2" points="186.042,-766.694 186.375,-756.104 179.511,-764.175 186.042,-766.694"/>
</g>
<!-- 33&#45;&gt;31 -->
<g id="edge45" class="edge"><title>33&#45;&gt;31</title>
<path fill="none" stroke="grey" stroke-width="2" d="M141.265,-791.876C128.304,-782.893 112.244,-771.763 98.2076,-762.034"/>
<polygon fill="grey" stroke="grey" stroke-width="2" points="99.9878,-759.009 89.775,-756.19 96.0003,-764.763 99.9878,-759.009"/>
</g>
<!-- 34&#45;&gt;32 -->
<g id="edge46" class="edge"><title>34&#45;&gt;32</title>
<path fill="none" stroke="grey" stroke-width="2" d="M381.984,-863.697C381.543,-855.983 381.013,-846.712 380.522,-838.112"/>
<polygon fill="grey" stroke="grey" stroke-width="2" points="384.015,-837.888 379.95,-828.104 377.026,-838.288 384.015,-837.888"/>
</g>
<!-- 35&#45;&gt;32 -->
<g id="edge47" class="edge"><title>35&#45;&gt;32</title>
<path fill="none" stroke="grey" stroke-width="2" d="M264.901,-864.233C285.378,-854.678 311.245,-842.606 333.168,-832.375"/>
<polygon fill="grey" stroke="grey" stroke-width="2" points="334.713,-835.517 342.295,-828.116 331.753,-829.173 334.713,-835.517"/>
</g>
<!-- 35&#45;&gt;33 -->
<g id="edge49" class="edge"><title>35&#45;&gt;33</title>
<path fill="none" stroke="grey" stroke-width="2" d="M213.4,-863.697C205.77,-855.22 196.45,-844.864 188.097,-835.583"/>
<polygon fill="grey" stroke="grey" stroke-width="2" points="190.658,-833.196 181.367,-828.104 185.455,-837.879 190.658,-833.196"/>
</g>
<!-- 36&#45;&gt;33 -->
<g id="edge48" class="edge"><title>36&#45;&gt;33</title>
<path fill="none" stroke="grey" stroke-width="2" d="M126.074,-863.697C132.364,-855.389 140.02,-845.277 146.938,-836.141"/>
<polygon fill="grey" stroke="grey" stroke-width="2" points="149.776,-838.19 153.022,-828.104 144.195,-833.964 149.776,-838.19"/>
</g>
</g>
</svg>
